<?xml version="1.0" encoding="UTF-8" standalone="no"?>
<svg
   width="334"
   height="202"
   viewBox="0 0 334 202"
   fill="none"
   version="1.1"
   id="svg81"
   sodipodi:docname="flexible-booking.svg"
   inkscape:version="1.4 (e7c3feb, 2024-10-09)"
   xmlns:inkscape="http://www.inkscape.org/namespaces/inkscape"
   xmlns:sodipodi="http://sodipodi.sourceforge.net/DTD/sodipodi-0.dtd"
   xmlns="http://www.w3.org/2000/svg"
   xmlns:svg="http://www.w3.org/2000/svg">
  <defs
     id="defs81" />
  <sodipodi:namedview
     id="namedview81"
     pagecolor="#505050"
     bordercolor="#eeeeee"
     borderopacity="1"
     inkscape:showpageshadow="0"
     inkscape:pageopacity="0"
     inkscape:pagecheckerboard="0"
     inkscape:deskcolor="#505050"
     inkscape:zoom="1.3663366"
     inkscape:cx="133.2029"
     inkscape:cy="106.85507"
     inkscape:window-width="1231"
     inkscape:window-height="754"
     inkscape:window-x="58"
     inkscape:window-y="3"
     inkscape:window-maximized="1"
     inkscape:current-layer="svg81" />
  <path
     opacity="0.3"
     d="m 7.8960019,188.22944 c 5.3613591,8.13894 10.7941531,16.36288 18.3636821,23.27053 4.004602,3.65483 8.702637,6.92717 13.911191,9.39895 H 296.05963 c 12.3177,-6.13234 22.99137,-14.19893 29.9267,-24.36285 10.79575,-15.82533 10.60062,-37.20758 -4.30068,-50.69553 -15.77286,-14.27589 -44.50881,-17.9422 -55.36159,-34.93681 -7.31357,-11.452411 -3.88443,-25.362239 1.24177,-37.561351 5.12621,-12.199111 11.88943,-24.50665 10.75873,-37.353684 C 277.33194,24.716155 269.87128,13.919708 258.50017,7.3028128 247.12907,0.68594716 232.06265,-1.6270301 218.46816,1.1574971 204.18524,4.0830717 192.41388,12.063234 181.7202,20.233648 171.02653,28.404293 160.56899,37.170254 147.30571,42.346053 134.04142,47.521966 116.95474,48.34034 105.44556,40.924322 97.752246,35.967445 92.677677,27.626235 83.054165,25.931598 72.400009,24.055253 62.836134,31.515606 57.000389,38.938056 40.312663,60.16386 35.263809,87.102087 43.42861,111.35122 c 2.393095,7.10796 5.879774,14.0719 6.444927,21.4229 0.565153,7.34987 -2.532183,15.48421 -10.384689,19.25391 -10.173955,4.88267 -25.010324,1.13939 -33.6690531,7.64849 -4.6715084,3.5124 -6.00593709,9.1922 -4.98218253,14.27359 1.02374963,5.08137 4.06325843,9.73204 7.05838953,14.27933 z"
     fill="#d0cdc4"
     id="path1"
     style="stroke-width:1.07206" />
  <g
     style="mix-blend-mode:multiply"
     id="g4"
     transform="matrix(1.0621973,0,0,1.1485949,-0.03194901,5.5444656e-7)">
    <path
       d="m 113.516,111.304 c -0.062,0 -0.125,-0.016 -0.183,-0.042 -0.063,-0.026 -0.112,-0.062 -0.16,-0.109 -0.044,-0.052 -0.078,-0.109 -0.102,-0.171 -0.024,-0.063 -0.039,-0.13 -0.039,-0.198 0,-0.067 0.015,-0.135 0.039,-0.197 0.024,-0.068 0.058,-0.125 0.102,-0.171 0.048,-0.047 0.097,-0.083 0.16,-0.109 0.116,-0.058 0.251,-0.058 0.367,0 0.059,0.026 0.112,0.062 0.16,0.109 0.044,0.046 0.078,0.103 0.102,0.171 0.024,0.062 0.039,0.13 0.039,0.197 0,0.068 -0.015,0.135 -0.039,0.198 -0.024,0.062 -0.058,0.119 -0.102,0.171 -0.048,0.047 -0.101,0.083 -0.16,0.109 -0.057,0.026 -0.121,0.042 -0.184,0.042 z"
       fill="#d0cdc4"
       id="path2" />
    <path
       d="m 111.539,110.473 h 0.005 c -0.251,-0.109 -0.368,-0.416 -0.266,-0.681 0.107,-0.265 0.387,-0.389 0.634,-0.28 0.247,0.109 0.364,0.415 0.262,0.68 -0.078,0.197 -0.257,0.322 -0.446,0.322 -0.063,0 -0.125,-0.016 -0.189,-0.041 z m -1.786,-0.805 c -0.247,-0.11 -0.359,-0.416 -0.257,-0.681 0.106,-0.265 0.392,-0.384 0.634,-0.275 0.247,0.114 0.364,0.416 0.257,0.68 -0.078,0.198 -0.257,0.317 -0.445,0.317 -0.063,0 -0.126,-0.01 -0.189,-0.041 z m -1.782,-0.821 c -0.242,-0.114 -0.354,-0.426 -0.247,-0.686 0.106,-0.264 0.392,-0.384 0.639,-0.264 0.242,0.114 0.353,0.42 0.247,0.68 -0.078,0.197 -0.257,0.312 -0.446,0.312 -0.063,0 -0.13,-0.011 -0.193,-0.042 z m -1.773,-0.857 c -0.242,-0.119 -0.348,-0.426 -0.232,-0.686 0.106,-0.264 0.397,-0.373 0.639,-0.254 0.242,0.12 0.349,0.426 0.237,0.686 -0.082,0.192 -0.256,0.301 -0.44,0.301 -0.068,0 -0.136,-0.011 -0.204,-0.047 z m -1.757,-0.893 c -0.238,-0.125 -0.339,-0.436 -0.223,-0.696 0.121,-0.255 0.407,-0.364 0.649,-0.239 0.242,0.13 0.339,0.436 0.222,0.696 -0.082,0.187 -0.256,0.291 -0.435,0.291 -0.068,0 -0.141,-0.016 -0.213,-0.052 z m -1.739,-0.945 c -0.237,-0.13 -0.324,-0.447 -0.203,-0.696 0.126,-0.255 0.416,-0.353 0.653,-0.224 0.238,0.135 0.33,0.447 0.204,0.701 -0.087,0.177 -0.252,0.281 -0.426,0.281 -0.078,0 -0.155,-0.021 -0.228,-0.062 z m -1.709,-0.998 c -0.233,-0.145 -0.315,-0.462 -0.184,-0.711 0.135,-0.249 0.431,-0.338 0.663,-0.192 0.232,0.14 0.31,0.457 0.179,0.706 -0.087,0.166 -0.252,0.265 -0.421,0.265 -0.082,0 -0.165,-0.021 -0.237,-0.068 z m -1.6808,-1.069 c -0.2274,-0.151 -0.2953,-0.473 -0.1548,-0.717 0.1404,-0.244 0.4407,-0.317 0.6682,-0.166 0.2224,0.15 0.2954,0.472 0.1551,0.716 -0.0922,0.156 -0.2518,0.244 -0.4117,0.244 -0.0872,0 -0.1792,-0.026 -0.2568,-0.077 z m -1.6367,-1.148 c -0.2227,-0.161 -0.2759,-0.483 -0.1257,-0.717 0.1499,-0.239 0.4502,-0.301 0.6729,-0.14 0.218,0.166 0.2761,0.488 0.126,0.722 -0.0969,0.15 -0.2471,0.228 -0.4019,0.228 -0.092,0 -0.1889,-0.031 -0.2713,-0.093 z m -1.5882,-1.226 c -0.2133,-0.171 -0.2567,-0.499 -0.0969,-0.727 0.1645,-0.229 0.4648,-0.275 0.6828,-0.099 0.2131,0.172 0.2518,0.499 0.092,0.727 -0.0969,0.136 -0.2421,0.208 -0.3875,0.208 -0.1017,0 -0.2034,-0.036 -0.2904,-0.109 z m -1.5303,-1.314 c -0.2033,-0.187 -0.2277,-0.5141 -0.0532,-0.7322 0.1743,-0.2181 0.4793,-0.244 0.6827,-0.0571 0.2033,0.1818 0.2277,0.5143 0.0534,0.7323 -0.0969,0.12 -0.2324,0.182 -0.3682,0.182 -0.1113,0 -0.2227,-0.042 -0.3147,-0.125 z m -1.4527,-1.4177 c -0.1937,-0.2026 -0.1986,-0.5298 -0.0097,-0.7374 0.184,-0.2026 0.489,-0.208 0.6829,-0.0104 0.1936,0.2023 0.1983,0.5297 0.0097,0.7374 -0.0923,0.1037 -0.218,0.1557 -0.3488,0.1557 -0.1211,0 -0.2421,-0.0466 -0.3341,-0.1453 z m -1.3705,-1.5165 c -0.1792,-0.213 -0.1645,-0.5401 0.0339,-0.7323 0.1986,-0.1923 0.5036,-0.1766 0.6878,0.0362 0.179,0.213 0.1646,0.5402 -0.0341,0.7324 -0.0919,0.0936 -0.208,0.1349 -0.3244,0.1349 -0.1355,0 -0.2662,-0.0571 -0.3632,-0.1712 z m -1.2687,-1.605 c -0.1646,-0.2285 -0.1308,-0.5556 0.0775,-0.7321 0.2131,-0.1767 0.5133,-0.1402 0.6829,0.0883 0.1646,0.2231 0.1307,0.5505 -0.0823,0.727 -0.0873,0.0728 -0.1939,0.1091 -0.3003,0.1091 -0.1405,0 -0.2809,-0.0675 -0.3778,-0.1923 z m -1.1669,-1.7033 c -0.1501,-0.2389 -0.092,-0.561 0.1308,-0.722 0.2177,-0.1611 0.5228,-0.0987 0.6729,0.1351 h -0.0048 c 0.1549,0.2389 0.0968,0.5607 -0.126,0.7218 -0.0822,0.0624 -0.1789,0.0882 -0.2712,0.0882 -0.1549,0 -0.3097,-0.0778 -0.4017,-0.2231 z m -1.046,-1.797 c -0.1308,-0.2493 -0.0485,-0.5663 0.1839,-0.7065 0.2277,-0.1402 0.523,-0.0571 0.6585,0.1922 0.1308,0.2493 0.0535,0.5663 -0.179,0.7063 -0.0776,0.0469 -0.1598,0.0728 -0.2421,0.0728 -0.1648,0 -0.3294,-0.0934 -0.4213,-0.2648 z m -0.9056,-1.875 v -0.0051 c -0.1162,-0.2597 -0.0098,-0.566 0.2324,-0.6908 0.2421,-0.1194 0.528,-0.0051 0.644,0.2546 0.1114,0.2597 0.005,0.566 -0.2371,0.6905 -0.0631,0.0312 -0.1357,0.0469 -0.2036,0.0469 -0.179,0 -0.3535,-0.109 -0.4357,-0.2961 z m -0.7555,-1.9631 c -0.092,-0.2701 0.0388,-0.566 0.2906,-0.6647 0.2518,-0.0989 0.5278,0.0413 0.62,0.3114 0.0919,0.2701 -0.0388,0.5663 -0.2906,0.665 -0.0582,0.0207 -0.1114,0.0312 -0.1648,0.0312 -0.1984,0 -0.3874,-0.1299 -0.4552,-0.3429 z m -0.5859,-2.0308 c -0.0629,-0.2751 0.092,-0.5609 0.3535,-0.6284 0.2567,-0.0725 0.523,0.0936 0.5859,0.3741 0.0678,0.2751 -0.087,0.5609 -0.3485,0.6334 -0.0388,0.0104 -0.0776,0.0158 -0.1211,0.0158 -0.213,0 -0.4117,-0.156 -0.4698,-0.3949 z M 224.785,86.1978 c -0.179,-0.2128 -0.164,-0.54 0.034,-0.7322 0.199,-0.1922 0.509,-0.1767 0.688,0.0416 0.174,0.2128 0.159,0.5401 -0.039,0.7322 -0.092,0.0882 -0.208,0.1298 -0.324,0.1298 -0.131,0 -0.262,-0.0571 -0.359,-0.1714 z m 1.424,-1.4022 c -0.189,-0.2026 -0.184,-0.535 0.01,-0.7324 0.188,-0.2026 0.493,-0.1973 0.683,0.0054 0.184,0.2077 0.184,0.5348 -0.01,0.7374 -0.092,0.0987 -0.213,0.1453 -0.339,0.1453 -0.126,0 -0.247,-0.0519 -0.344,-0.1557 z M 85.6179,84.4061 c -0.0388,-0.2858 0.1452,-0.5505 0.4067,-0.5868 0.2664,-0.0469 0.5133,0.1506 0.5521,0.4362 0.0388,0.2805 -0.1455,0.5452 -0.4117,0.5868 -0.0241,0.0053 -0.0435,0.0053 -0.0678,0.0053 -0.2372,0 -0.4455,-0.1818 -0.4793,-0.4415 z M 227.579,83.3309 c -0.198,-0.1973 -0.208,-0.5244 -0.024,-0.7321 0.184,-0.2131 0.489,-0.2235 0.683,-0.0262 0.199,0.1976 0.208,0.5248 0.024,0.7377 -0.097,0.1091 -0.223,0.1608 -0.353,0.1608 -0.121,0 -0.238,-0.0467 -0.33,-0.1402 z M 85.4339,82.2871 c -0.0097,-0.2855 0.1984,-0.5297 0.4649,-0.5401 0.2662,-0.0105 0.4939,0.213 0.5036,0.4985 0.0097,0.2909 -0.1986,0.5297 -0.4648,0.5402 h -0.0194 c -0.2615,0 -0.4746,-0.2181 -0.4843,-0.4986 z M 228.887,81.804 c -0.203,-0.1869 -0.223,-0.514 -0.048,-0.7321 0.174,-0.2181 0.479,-0.2389 0.682,-0.052 0.204,0.1869 0.223,0.514 0.049,0.7324 -0.097,0.1194 -0.233,0.1815 -0.368,0.1815 -0.112,0 -0.223,-0.0413 -0.315,-0.1298 z M 85.9132,80.7136 c -0.2662,-0.0208 -0.4696,-0.2701 -0.4504,-0.5559 0.0194,-0.2856 0.2471,-0.5036 0.5133,-0.4829 0.2665,0.0206 0.4698,0.2701 0.4504,0.5556 -0.0144,0.2702 -0.2277,0.4832 -0.4795,0.4832 z M 230.136,80.2252 c -0.208,-0.1816 -0.242,-0.509 -0.073,-0.7322 0.165,-0.2234 0.47,-0.2597 0.679,-0.0831 0.208,0.1818 0.242,0.5038 0.077,0.7323 -0.097,0.1298 -0.237,0.1922 -0.378,0.1922 -0.106,0 -0.213,-0.0365 -0.305,-0.1092 z m 1.191,-1.636 c -0.213,-0.1714 -0.261,-0.4986 -0.101,-0.727 0.155,-0.2338 0.46,-0.2805 0.673,-0.1144 0.218,0.1714 0.266,0.4988 0.107,0.7273 -0.097,0.1402 -0.243,0.2128 -0.393,0.2128 -0.097,0 -0.199,-0.0312 -0.286,-0.0987 z M 86.0875,78.6465 c -0.2616,-0.0469 -0.4405,-0.3117 -0.397,-0.5975 0.0435,-0.2804 0.2906,-0.4724 0.5568,-0.4257 0.2615,0.0467 0.4407,0.3116 0.3973,0.5972 -0.0388,0.2546 -0.2422,0.4362 -0.4746,0.4362 -0.0291,0 -0.0535,-0.0051 -0.0825,-0.0102 z M 232.456,76.9013 c -0.223,-0.161 -0.281,-0.4828 -0.131,-0.7166 0.15,-0.239 0.45,-0.3013 0.673,-0.1454 0.223,0.1608 0.281,0.4829 0.131,0.7218 -0.092,0.1506 -0.247,0.2284 -0.402,0.2284 -0.092,0 -0.189,-0.0258 -0.271,-0.0882 z M 86.4459,76.6104 c -0.2615,-0.0725 -0.4164,-0.353 -0.3487,-0.6334 0.0631,-0.2755 0.3293,-0.4466 0.5859,-0.3741 0.2615,0.0728 0.4166,0.3533 0.3535,0.6337 -0.058,0.2336 -0.2516,0.3896 -0.4696,0.3896 -0.0388,0 -0.0823,-0.0054 -0.1211,-0.0158 z M 233.521,75.1718 c -0.228,-0.1506 -0.3,-0.4725 -0.16,-0.7167 0.141,-0.2439 0.441,-0.3167 0.669,-0.166 0.227,0.1506 0.3,0.4673 0.159,0.7115 -0.092,0.1608 -0.252,0.2493 -0.416,0.2493 -0.087,0 -0.174,-0.0261 -0.252,-0.0781 z M 86.9593,74.6111 c -0.2519,-0.0936 -0.3876,-0.3844 -0.3051,-0.6596 0.0871,-0.27 0.3632,-0.4156 0.615,-0.322 0.2516,0.0882 0.3873,0.3841 0.3051,0.6542 -0.0679,0.2181 -0.2568,0.3533 -0.4602,0.3533 -0.0532,0 -0.1017,-0.0053 -0.1548,-0.0259 z M 234.519,73.3957 c -0.233,-0.1403 -0.315,-0.457 -0.184,-0.7063 0.131,-0.2493 0.426,-0.3376 0.658,-0.1973 0.237,0.1403 0.32,0.457 0.189,0.7062 -0.092,0.1715 -0.257,0.2648 -0.426,0.2648 -0.078,0 -0.16,-0.0205 -0.237,-0.0674 z M 87.6081,72.6582 c -0.2469,-0.1091 -0.368,-0.4103 -0.2663,-0.675 0.1017,-0.2702 0.3826,-0.3949 0.6294,-0.2858 0.2472,0.109 0.3682,0.4102 0.2665,0.6753 -0.0776,0.2023 -0.2568,0.3271 -0.4504,0.3271 -0.0582,0 -0.1211,-0.0157 -0.1792,-0.0416 z M 235.453,71.5779 c -0.237,-0.1298 -0.329,-0.4466 -0.208,-0.7012 0.121,-0.2544 0.412,-0.353 0.649,-0.2232 0.237,0.1299 0.334,0.4466 0.213,0.7012 -0.087,0.1765 -0.257,0.2805 -0.431,0.2805 -0.077,0 -0.15,-0.0157 -0.223,-0.0573 z M 88.3635,70.7469 c -0.2421,-0.1195 -0.3487,-0.4309 -0.2324,-0.6855 0.1114,-0.2596 0.402,-0.3738 0.6441,-0.2543 0.2421,0.1245 0.3438,0.4362 0.2324,0.6958 -0.0823,0.1869 -0.2568,0.296 -0.4407,0.296 -0.0679,0 -0.1355,-0.0155 -0.2034,-0.052 z M 236.32,69.7239 c -0.242,-0.1195 -0.349,-0.4311 -0.237,-0.6908 h 0.005 c 0.111,-0.2597 0.397,-0.374 0.639,-0.2493 0.242,0.1195 0.349,0.4258 0.237,0.6855 -0.082,0.1922 -0.256,0.3012 -0.44,0.3012 -0.068,0 -0.136,-0.0154 -0.204,-0.0466 z M 89.2012,68.8824 c -0.2371,-0.1298 -0.3293,-0.4465 -0.2033,-0.7011 0.1211,-0.2544 0.4164,-0.353 0.6538,-0.2181 0.2372,0.1298 0.3291,0.4466 0.2033,0.7012 -0.0872,0.1765 -0.2518,0.2751 -0.426,0.2751 -0.0776,0 -0.1552,-0.0155 -0.2278,-0.0571 z M 237.119,67.8333 c -0.247,-0.109 -0.363,-0.4153 -0.261,-0.6803 0.101,-0.2648 0.387,-0.3895 0.634,-0.2752 0.242,0.109 0.363,0.4103 0.256,0.6751 -0.077,0.2026 -0.256,0.322 -0.445,0.322 -0.063,0 -0.126,-0.0154 -0.184,-0.0416 z M 90.1116,67.0543 c -0.2325,-0.1453 -0.3148,-0.4623 -0.1887,-0.7116 0.1307,-0.2493 0.4261,-0.3375 0.6632,-0.1973 0.2325,0.1403 0.315,0.457 0.1842,0.7063 -0.0872,0.1714 -0.2518,0.265 -0.4213,0.265 -0.0823,0 -0.1649,-0.0208 -0.2374,-0.0624 z M 237.845,65.9119 c -0.251,-0.0989 -0.377,-0.3999 -0.285,-0.67 0.092,-0.265 0.372,-0.4053 0.624,-0.3013 0.252,0.0986 0.378,0.3946 0.286,0.6647 -0.073,0.213 -0.261,0.3375 -0.455,0.3375 -0.058,0 -0.116,-0.0104 -0.17,-0.0309 z M 91.0656,65.2469 c -0.2277,-0.1452 -0.305,-0.4622 -0.1695,-0.7115 0.1355,-0.244 0.4311,-0.3272 0.6635,-0.1816 0.2275,0.1453 0.305,0.4621 0.1695,0.7113 -0.0922,0.1611 -0.2518,0.2547 -0.4166,0.2547 -0.0823,0 -0.1693,-0.0209 -0.2469,-0.0729 z M 238.504,63.959 c -0.257,-0.0883 -0.397,-0.3842 -0.31,-0.6543 0.082,-0.2701 0.354,-0.4207 0.61,-0.3324 0.252,0.0935 0.392,0.3841 0.31,0.6542 -0.067,0.2234 -0.257,0.3583 -0.46,0.3583 -0.053,0 -0.102,-0.005 -0.15,-0.0258 z M 92.0535,63.4655 c -0.2277,-0.1504 -0.3002,-0.4725 -0.1598,-0.7167 0.1355,-0.2439 0.4358,-0.322 0.6634,-0.1714 0.2275,0.1456 0.3001,0.4676 0.1599,0.7116 h 0.0047 c -0.092,0.161 -0.2518,0.2492 -0.4164,0.2492 -0.0872,0 -0.1744,-0.0258 -0.2518,-0.0727 z m 147.0315,-1.48 c -0.256,-0.0781 -0.407,-0.3687 -0.334,-0.6441 0.073,-0.2752 0.344,-0.4362 0.601,-0.3583 0.256,0.0778 0.406,0.3636 0.333,0.6441 -0.062,0.2285 -0.256,0.3738 -0.464,0.3738 -0.044,0 -0.092,-0.0051 -0.136,-0.0155 z M 93.0608,61.6893 c -0.2277,-0.1506 -0.3003,-0.4674 -0.1598,-0.7113 0.1355,-0.2442 0.4357,-0.3221 0.6634,-0.1768 0.2275,0.1507 0.3001,0.4727 0.1596,0.7167 -0.092,0.161 -0.2518,0.2495 -0.4114,0.2495 -0.0872,0 -0.1745,-0.0261 -0.2518,-0.0781 z M 239.598,59.986 c -0.261,-0.0675 -0.421,-0.348 -0.358,-0.6285 0.063,-0.2804 0.324,-0.4519 0.586,-0.3844 0.257,0.0677 0.417,0.3479 0.354,0.6284 -0.054,0.2389 -0.252,0.3948 -0.47,0.3948 -0.039,0 -0.078,-0.0053 -0.112,-0.0103 z M 94.0678,59.9185 c -0.2274,-0.1507 -0.3,-0.4676 -0.1645,-0.7116 0.1357,-0.2493 0.4357,-0.3271 0.6634,-0.1765 0.2325,0.1453 0.305,0.4674 0.1646,0.7113 -0.092,0.1611 -0.2518,0.2493 -0.4116,0.2493 -0.0871,0 -0.1743,-0.0208 -0.2519,-0.0725 z m 0.9976,-1.7764 c -0.2324,-0.1453 -0.3097,-0.4674 -0.1743,-0.7114 0.1308,-0.2492 0.4311,-0.3324 0.6585,-0.1871 0.2325,0.1456 0.31,0.4623 0.1746,0.7065 v 0.0051 c -0.0873,0.161 -0.2519,0.2546 -0.4167,0.2546 -0.0823,0 -0.1693,-0.0208 -0.2421,-0.0677 z M 240.029,57.9605 c -0.261,-0.0573 -0.431,-0.3274 -0.377,-0.6076 0.053,-0.2805 0.305,-0.4677 0.571,-0.4103 0.262,0.0571 0.431,0.3322 0.378,0.6127 -0.044,0.2442 -0.247,0.4156 -0.475,0.4156 -0.029,0 -0.063,0 -0.097,-0.0104 z M 96.0339,56.3451 c -0.2371,-0.1453 -0.3195,-0.457 -0.184,-0.7063 0.1308,-0.2543 0.4261,-0.3428 0.6585,-0.1972 0.2325,0.1402 0.315,0.4569 0.1843,0.7062 -0.0923,0.1664 -0.2568,0.265 -0.4264,0.265 -0.0773,0 -0.1596,-0.0208 -0.2324,-0.0677 z M 240.392,55.9246 c -0.266,-0.0469 -0.445,-0.3116 -0.402,-0.5921 0.039,-0.2858 0.287,-0.4777 0.553,-0.4364 0.261,0.0469 0.441,0.3117 0.402,0.5975 -0.039,0.2543 -0.242,0.4361 -0.48,0.4361 -0.024,0 -0.048,0 -0.073,-0.0051 z M 96.9733,54.5327 c -0.2324,-0.1352 -0.3194,-0.4519 -0.1887,-0.7063 0.1258,-0.2493 0.4211,-0.3428 0.6538,-0.2026 0.2371,0.1349 0.3244,0.4519 0.1936,0.7012 -0.0872,0.1714 -0.2518,0.2701 -0.4263,0.2701 -0.0773,0 -0.1548,-0.0209 -0.2324,-0.0624 z M 240.673,53.8731 c -0.266,-0.0363 -0.46,-0.2909 -0.426,-0.5764 0.03,-0.2858 0.272,-0.4882 0.538,-0.4572 0.261,0.0312 0.455,0.2908 0.421,0.5766 -0.029,0.2648 -0.237,0.457 -0.479,0.457 z M 97.8983,52.7096 c -0.2372,-0.1349 -0.3244,-0.4516 -0.1986,-0.7009 0.126,-0.2546 0.4166,-0.3482 0.6537,-0.2131 0.2375,0.135 0.3245,0.4466 0.1987,0.7012 -0.0873,0.1766 -0.2518,0.2752 -0.4261,0.2752 -0.0776,0 -0.1551,-0.0208 -0.2277,-0.0624 z M 240.872,51.8061 c -0.266,-0.0208 -0.465,-0.265 -0.446,-0.5557 0.02,-0.2858 0.252,-0.4988 0.519,-0.478 0.266,0.0208 0.465,0.2701 0.445,0.5559 -0.019,0.2751 -0.232,0.4828 -0.479,0.4828 -0.015,0 -0.024,0 -0.039,-0.005 z M 98.8039,50.8764 c -0.2374,-0.1299 -0.3294,-0.4466 -0.2034,-0.7012 0.1211,-0.2543 0.4164,-0.353 0.6538,-0.2181 0.2372,0.1349 0.3292,0.4466 0.2034,0.7012 -0.0873,0.1765 -0.2568,0.2805 -0.4311,0.2805 -0.0726,0 -0.1501,-0.0208 -0.2227,-0.0624 z M 240.993,49.739 c -0.266,-0.0104 -0.474,-0.2493 -0.47,-0.5351 0.01,-0.2855 0.233,-0.514 0.499,-0.5036 0.271,0.0104 0.479,0.2493 0.47,0.5349 -0.005,0.2804 -0.223,0.5038 -0.484,0.5038 z M 99.6998,49.0379 c -0.2374,-0.1299 -0.3341,-0.4466 -0.213,-0.7012 0.1257,-0.2544 0.4163,-0.353 0.6532,-0.2232 0.238,0.1299 0.33,0.4466 0.209,0.7009 -0.083,0.1768 -0.252,0.2805 -0.4315,0.2805 -0.0725,0 -0.1501,-0.0208 -0.2177,-0.057 z M 240.543,47.1526 c 0,-0.2908 0.213,-0.5247 0.479,-0.5297 0.267,0 0.489,0.2285 0.489,0.514 0.005,0.2858 -0.208,0.5247 -0.474,0.5297 h -0.01 c -0.261,0 -0.479,-0.2335 -0.484,-0.514 z m -139.962,0.0416 c -0.237,-0.1298 -0.334,-0.4468 -0.213,-0.7011 0.121,-0.2547 0.416,-0.3584 0.654,-0.2286 0.237,0.135 0.334,0.4466 0.213,0.7012 -0.087,0.1816 -0.257,0.2856 -0.436,0.2856 -0.073,0 -0.15,-0.0208 -0.218,-0.0571 z M 240.48,45.1011 c -0.019,-0.2856 0.189,-0.5298 0.455,-0.5506 0.266,-0.0154 0.494,0.2027 0.508,0.4882 0.015,0.2858 -0.189,0.5351 -0.455,0.5505 h -0.029 c -0.252,0 -0.465,-0.2127 -0.479,-0.4881 z m -139.018,0.2442 c -0.242,-0.1299 -0.334,-0.4415 -0.213,-0.7012 0.121,-0.2546 0.412,-0.3533 0.649,-0.2234 0.237,0.1298 0.334,0.4415 0.213,0.6961 -0.087,0.1816 -0.256,0.2856 -0.431,0.2856 -0.072,0 -0.15,-0.0209 -0.218,-0.0571 z m 0.877,-1.8489 c -0.237,-0.1299 -0.334,-0.4466 -0.213,-0.7012 0.121,-0.2544 0.416,-0.3533 0.654,-0.2234 0.237,0.1298 0.329,0.4415 0.208,0.696 -0.083,0.1819 -0.257,0.2856 -0.431,0.2856 -0.073,0 -0.15,-0.0208 -0.218,-0.057 z m 137.976,-0.4311 c -0.029,-0.2856 0.165,-0.5453 0.431,-0.5765 0.266,-0.0312 0.504,0.1715 0.533,0.457 0.029,0.2855 -0.16,0.5452 -0.426,0.5764 h -0.054 c -0.247,0 -0.455,-0.192 -0.484,-0.4569 z M 103.22,41.6474 c -0.242,-0.1298 -0.334,-0.4415 -0.213,-0.6958 0.126,-0.2547 0.417,-0.3584 0.654,-0.2235 0.237,0.1299 0.334,0.4415 0.208,0.6959 -0.087,0.1818 -0.256,0.2805 -0.431,0.2805 -0.073,0 -0.15,-0.0155 -0.218,-0.0571 z m 136.829,-0.6076 c -0.049,-0.2805 0.125,-0.5506 0.392,-0.6025 0.262,-0.0467 0.513,0.1402 0.562,0.426 0.043,0.2802 -0.131,0.5503 -0.397,0.5972 -0.024,0.0051 -0.054,0.0104 -0.083,0.0104 -0.232,0 -0.436,-0.1768 -0.474,-0.4311 z m -135.943,-1.236 c -0.237,-0.1298 -0.329,-0.4469 -0.208,-0.7012 0.126,-0.2546 0.417,-0.3479 0.654,-0.2181 0.237,0.1349 0.329,0.4466 0.208,0.701 -0.087,0.1767 -0.257,0.2804 -0.431,0.2804 -0.073,0 -0.15,-0.0208 -0.223,-0.0621 z m 135.546,-0.7532 c -0.064,-0.2804 0.092,-0.5609 0.353,-0.6284 0.257,-0.0728 0.523,0.0987 0.586,0.3738 0.063,0.2805 -0.092,0.5609 -0.353,0.6287 -0.039,0.0104 -0.078,0.0154 -0.117,0.0154 -0.218,0 -0.416,-0.1557 -0.469,-0.3895 z m -134.65,-1.0803 c -0.232,-0.1349 -0.324,-0.4519 -0.198,-0.7062 0.126,-0.2493 0.421,-0.348 0.653,-0.2131 0.238,0.1352 0.33,0.4519 0.204,0.7063 -0.087,0.1714 -0.257,0.2754 -0.431,0.2754 -0.073,0 -0.155,-0.0208 -0.228,-0.0624 z m 134.117,-0.8724 c -0.087,-0.27 0.049,-0.5662 0.3,-0.6545 0.257,-0.0935 0.528,0.052 0.615,0.3221 0.087,0.2701 -0.048,0.566 -0.3,0.6596 -0.053,0.0208 -0.107,0.0312 -0.16,0.0312 -0.198,0 -0.387,-0.1402 -0.455,-0.3584 z M 192.801,36.942 c -0.271,-0.0051 -0.484,-0.2389 -0.484,-0.5244 0.005,-0.2858 0.223,-0.5194 0.489,-0.5143 0.266,0 0.484,0.2338 0.479,0.5193 0,0.2909 -0.218,0.5194 -0.484,0.5194 z m 1.453,-0.5453 c -0.015,-0.2857 0.188,-0.5297 0.455,-0.5454 0.266,-0.0155 0.494,0.2026 0.508,0.4882 0.019,0.2858 -0.189,0.5297 -0.455,0.5454 -0.01,0.0051 -0.019,0.0051 -0.029,0.0051 -0.252,0 -0.465,-0.2181 -0.479,-0.4933 z m -3.415,0.4674 c -0.266,-0.0208 -0.469,-0.265 -0.45,-0.5505 0.015,-0.2909 0.247,-0.5039 0.513,-0.4882 v 0.0051 c 0.267,0.0157 0.47,0.265 0.451,0.5506 -0.019,0.2753 -0.227,0.483 -0.479,0.483 z m 5.342,-0.6129 c -0.034,-0.2855 0.16,-0.5452 0.421,-0.5815 v 0.0051 c 0.266,-0.0363 0.509,0.1661 0.543,0.4519 0.028,0.2855 -0.16,0.5402 -0.426,0.5764 -0.02,0 -0.039,0.0053 -0.059,0.0053 -0.242,0 -0.45,-0.1975 -0.479,-0.4572 z m -7.298,0.4103 c -0.266,-0.0362 -0.45,-0.2959 -0.421,-0.5817 0.034,-0.2856 0.276,-0.4829 0.542,-0.4466 0.267,0.0365 0.456,0.2962 0.422,0.5764 -0.034,0.265 -0.243,0.4573 -0.48,0.4573 -0.024,0 -0.043,0 -0.063,-0.0054 z m 9.215,-0.6908 c -0.048,-0.2855 0.121,-0.5556 0.388,-0.6076 0.261,-0.052 0.513,0.1352 0.562,0.4157 0.048,0.2804 -0.122,0.5503 -0.388,0.6076 -0.029,0.0051 -0.058,0.0051 -0.087,0.0051 -0.228,0 -0.431,-0.1715 -0.475,-0.4208 z m -11.152,0.3637 c -0.266,-0.052 -0.435,-0.3272 -0.387,-0.6076 0.049,-0.2805 0.3,-0.4674 0.566,-0.4157 0.262,0.0574 0.436,0.3274 0.383,0.6079 -0.044,0.2493 -0.247,0.4258 -0.474,0.4258 -0.03,0 -0.059,-0.0053 -0.088,-0.0104 z m -81.029,-0.1922 c -0.237,-0.1403 -0.319,-0.457 -0.193,-0.7063 0.131,-0.2493 0.426,-0.3428 0.658,-0.2077 0.233,0.1403 0.32,0.4517 0.194,0.7063 -0.087,0.1714 -0.257,0.27 -0.426,0.27 -0.078,0 -0.16,-0.0207 -0.233,-0.0623 z m 94.075,-0.5869 c -0.068,-0.2804 0.092,-0.5609 0.348,-0.6337 0.262,-0.0674 0.523,0.0989 0.592,0.3741 0.067,0.2805 -0.093,0.5609 -0.349,0.6337 -0.039,0.0102 -0.083,0.0155 -0.121,0.0155 -0.219,0 -0.412,-0.1557 -0.47,-0.3896 z m -14.963,0.3272 c -0.262,-0.0675 -0.417,-0.3479 -0.354,-0.6284 0.063,-0.2805 0.329,-0.4466 0.586,-0.3791 0.262,0.0727 0.422,0.3532 0.353,0.6337 -0.053,0.2336 -0.251,0.3895 -0.469,0.3895 -0.039,0 -0.078,-0.0053 -0.116,-0.0157 z m 53.402,-0.67 c -0.106,-0.2648 0.005,-0.5713 0.247,-0.6855 0.248,-0.1143 0.533,0 0.64,0.2648 0.106,0.2597 0,0.5662 -0.247,0.6857 -0.063,0.0312 -0.131,0.0416 -0.194,0.0416 -0.189,0 -0.363,-0.1144 -0.446,-0.3066 z m -36.575,-0.2024 c -0.082,-0.2754 0.053,-0.5713 0.31,-0.6596 0.252,-0.0885 0.528,0.0571 0.61,0.3322 0.083,0.2701 -0.053,0.5663 -0.305,0.6546 -0.053,0.0207 -0.106,0.0258 -0.155,0.0258 -0.203,0 -0.392,-0.1402 -0.46,-0.353 z m -18.716,0.301 c -0.257,-0.0829 -0.397,-0.3737 -0.319,-0.6492 0.082,-0.2751 0.353,-0.4257 0.61,-0.3375 0.252,0.0832 0.392,0.3741 0.315,0.6492 -0.063,0.2234 -0.257,0.3637 -0.461,0.3637 -0.048,0 -0.097,-0.0104 -0.145,-0.0262 z m -1.854,-0.6854 c -0.253,-0.104 -0.378,-0.405 -0.281,-0.67 0.091,-0.2701 0.372,-0.405 0.624,-0.3013 0.252,0.0987 0.373,0.3999 0.281,0.67 -0.073,0.2077 -0.257,0.3325 -0.455,0.3325 -0.058,0 -0.116,-0.0104 -0.169,-0.0312 z m 22.396,-0.3013 c -0.102,-0.2648 0.019,-0.5713 0.266,-0.6804 0.247,-0.1037 0.533,0.0208 0.63,0.2858 0.101,0.2648 -0.015,0.5714 -0.262,0.6804 -0.063,0.0259 -0.121,0.0363 -0.184,0.0363 -0.189,0 -0.373,-0.1248 -0.45,-0.3221 z m -96.83,0 c -0.237,-0.1402 -0.32,-0.457 -0.184,-0.7063 0.131,-0.2545 0.426,-0.3428 0.659,-0.1972 0.232,0.1402 0.314,0.4569 0.184,0.7062 -0.092,0.1661 -0.257,0.2648 -0.422,0.2648 -0.082,0 -0.164,-0.0206 -0.237,-0.0675 z m 72.618,-0.509 c -0.242,-0.1141 -0.349,-0.4206 -0.242,-0.6854 0.111,-0.2597 0.397,-0.3791 0.644,-0.2597 0.242,0.1195 0.348,0.4258 0.242,0.6855 -0.083,0.1922 -0.257,0.3063 -0.446,0.3063 -0.063,0 -0.131,-0.0154 -0.198,-0.0467 z m 25.994,-0.3012 c -0.117,-0.2597 -0.01,-0.5711 0.232,-0.6959 0.237,-0.1194 0.528,-0.0104 0.645,0.2493 0.111,0.2597 0.009,0.5714 -0.233,0.6908 -0.068,0.0363 -0.136,0.052 -0.208,0.052 -0.179,0 -0.354,-0.1091 -0.436,-0.2962 z m 32.12,-0.1038 c -0.136,-0.2492 -0.054,-0.5662 0.179,-0.7115 0.232,-0.1402 0.528,-0.057 0.664,0.1922 h -0.005 c 0.135,0.2493 0.053,0.566 -0.179,0.7114 -0.073,0.0469 -0.155,0.0676 -0.238,0.0676 -0.169,0 -0.334,-0.0935 -0.421,-0.2597 z m -59.877,-0.5142 c -0.237,-0.135 -0.329,-0.4466 -0.204,-0.7012 0.127,-0.2543 0.417,-0.353 0.654,-0.2181 0.238,0.1352 0.329,0.4468 0.204,0.7012 -0.087,0.1765 -0.257,0.2752 -0.431,0.2752 -0.073,0 -0.15,-0.0155 -0.223,-0.0571 z m 29.495,-0.2909 c -0.121,-0.2543 -0.029,-0.566 0.209,-0.7009 0.237,-0.1299 0.527,-0.0312 0.653,0.2231 0.121,0.2547 0.029,0.5661 -0.208,0.7012 -0.073,0.0363 -0.15,0.0571 -0.223,0.0571 -0.174,0 -0.343,-0.1037 -0.431,-0.2805 z m -99.396,-0.0829 c -0.232,-0.1456 -0.31,-0.4676 -0.174,-0.7116 0.135,-0.2493 0.431,-0.3325 0.663,-0.1869 0.228,0.1402 0.305,0.462 0.174,0.7113 -0.092,0.1611 -0.251,0.2547 -0.421,0.2547 -0.082,0 -0.165,-0.0209 -0.242,-0.0675 z m 68.192,-0.6596 c -0.233,-0.1507 -0.305,-0.4676 -0.165,-0.7169 0.141,-0.2439 0.436,-0.3218 0.663,-0.1712 0.233,0.1453 0.306,0.4674 0.165,0.7113 -0.092,0.1611 -0.252,0.2493 -0.417,0.2493 -0.082,0 -0.169,-0.0208 -0.246,-0.0725 z m 60.564,-0.1456 c -0.159,-0.2335 -0.111,-0.5556 0.107,-0.727 0.213,-0.1714 0.518,-0.1195 0.677,0.1144 0.156,0.2335 0.107,0.5556 -0.106,0.727 -0.087,0.0675 -0.189,0.0986 -0.286,0.0986 -0.15,0 -0.3,-0.0727 -0.392,-0.213 z m -27.646,-0.0778 c -0.13,-0.2544 -0.043,-0.5714 0.19,-0.7063 0.232,-0.1402 0.527,-0.0469 0.658,0.2077 0.126,0.2493 0.039,0.5661 -0.194,0.7012 -0.072,0.0467 -0.155,0.0624 -0.232,0.0624 -0.17,0 -0.339,-0.0936 -0.422,-0.265 z m 1.691,-1.0025 c -0.131,-0.2543 -0.049,-0.5711 0.188,-0.7062 0.233,-0.1403 0.528,-0.052 0.659,0.1973 0.131,0.2546 0.044,0.5663 -0.189,0.7065 -0.073,0.0466 -0.155,0.0675 -0.237,0.0675 -0.169,0 -0.334,-0.0987 -0.421,-0.2651 z m -101.818,0.0936 c -0.232,-0.1453 -0.305,-0.4674 -0.165,-0.7116 0.141,-0.244 0.436,-0.3218 0.664,-0.1714 0.232,0.1456 0.305,0.4676 0.164,0.7116 -0.092,0.161 -0.251,0.2493 -0.416,0.2493 -0.082,0 -0.17,-0.0259 -0.247,-0.0779 z m 65.562,-0.0155 c -0.223,-0.1663 -0.276,-0.4884 -0.121,-0.7219 0.15,-0.2389 0.45,-0.296 0.673,-0.1299 0.218,0.161 0.271,0.4831 0.121,0.722 -0.097,0.1453 -0.247,0.2232 -0.397,0.2232 -0.097,0 -0.194,-0.0312 -0.276,-0.0934 z m 61.02,-0.5558 c -0.179,-0.2128 -0.165,-0.5402 0.029,-0.7375 0.199,-0.1922 0.504,-0.1765 0.688,0.0312 0.179,0.213 0.164,0.5402 -0.034,0.7374 -0.092,0.0883 -0.208,0.1352 -0.325,0.1352 -0.13,0 -0.261,-0.0573 -0.358,-0.1663 z m -23.074,-0.5349 c -0.131,-0.2493 -0.044,-0.5662 0.193,-0.7011 0.233,-0.1403 0.528,-0.0467 0.654,0.2076 0.131,0.2493 0.044,0.5663 -0.189,0.7012 -0.077,0.0467 -0.155,0.0624 -0.232,0.0624 -0.175,0 -0.339,-0.0936 -0.426,-0.2701 z M 172.772,29.458 c -0.208,-0.1816 -0.242,-0.509 -0.077,-0.7322 0.169,-0.2234 0.47,-0.2596 0.683,-0.0831 0.208,0.1765 0.242,0.5039 0.077,0.7323 -0.097,0.1246 -0.237,0.1923 -0.382,0.1923 -0.102,0 -0.209,-0.0366 -0.301,-0.1093 z m -62.976,-0.4932 c -0.223,-0.156 -0.29,-0.4728 -0.145,-0.7167 0.14,-0.2389 0.441,-0.3117 0.668,-0.156 0.228,0.1506 0.291,0.4727 0.15,0.7116 -0.092,0.1557 -0.252,0.2442 -0.411,0.2442 -0.087,0 -0.179,-0.0261 -0.262,-0.0831 z m 104.2,-0.3272 c -0.121,-0.2493 -0.029,-0.5662 0.208,-0.6961 0.238,-0.1298 0.533,-0.0312 0.654,0.2234 0.121,0.2544 0.029,0.566 -0.208,0.7012 -0.073,0.0363 -0.145,0.0571 -0.223,0.0571 -0.174,0 -0.344,-0.104 -0.431,-0.2856 z m 20.029,0.1245 c -0.203,-0.1869 -0.228,-0.514 -0.054,-0.7323 0.17,-0.2181 0.475,-0.244 0.679,-0.0571 0.203,0.1869 0.232,0.5143 0.058,0.7324 -0.097,0.1194 -0.233,0.1818 -0.369,0.1818 -0.111,0 -0.222,-0.0416 -0.314,-0.1248 z m -62.749,-0.67 c -0.198,-0.1973 -0.213,-0.5244 -0.034,-0.7374 0.179,-0.2077 0.489,-0.2234 0.683,-0.0312 h 0.005 c 0.194,0.1922 0.208,0.5193 0.029,0.7324 -0.092,0.1141 -0.223,0.1714 -0.358,0.1714 -0.117,0 -0.233,-0.0469 -0.325,-0.1352 z m 44.449,-0.3841 c -0.111,-0.2597 -0.01,-0.5714 0.232,-0.6908 0.243,-0.1248 0.533,-0.0104 0.644,0.2493 0.117,0.2596 0.01,0.5713 -0.232,0.6907 -0.068,0.0312 -0.135,0.0467 -0.203,0.0467 -0.184,0 -0.359,-0.1091 -0.441,-0.2959 z m 16.798,-0.1456 c -0.222,-0.1557 -0.285,-0.4778 -0.14,-0.7167 0.146,-0.2389 0.445,-0.3116 0.668,-0.1557 0.223,0.1557 0.291,0.4778 0.146,0.7217 -0.097,0.1507 -0.252,0.2338 -0.412,0.2338 -0.087,0 -0.179,-0.0258 -0.262,-0.0831 z M 110.847,27.2198 c -0.223,-0.156 -0.281,-0.478 -0.136,-0.717 0.151,-0.2388 0.451,-0.3063 0.674,-0.1452 0.222,0.161 0.281,0.483 0.135,0.7219 -0.097,0.1507 -0.247,0.2285 -0.407,0.2285 -0.092,0 -0.184,-0.0261 -0.266,-0.0882 z m 106.641,-0.3637 c -0.097,-0.2701 0.024,-0.5713 0.271,-0.675 0.252,-0.104 0.533,0.0258 0.63,0.2906 0.101,0.265 -0.025,0.5662 -0.272,0.6753 -0.058,0.0259 -0.116,0.0363 -0.179,0.0363 -0.189,0 -0.373,-0.1245 -0.45,-0.3272 z m -47.621,-0.2338 c -0.184,-0.2077 -0.179,-0.5401 0.015,-0.7374 0.193,-0.1973 0.498,-0.1923 0.682,0.0157 0.184,0.2077 0.179,0.5348 -0.014,0.7321 -0.092,0.0987 -0.213,0.1456 -0.334,0.1456 -0.126,0 -0.257,-0.052 -0.349,-0.156 z m 61.024,-0.0208 c -0.242,-0.1194 -0.348,-0.4257 -0.236,-0.6854 0.111,-0.2597 0.396,-0.3739 0.638,-0.2597 0.243,0.1194 0.354,0.4311 0.243,0.6907 -0.083,0.1923 -0.257,0.3013 -0.441,0.3013 -0.068,0 -0.135,-0.0104 -0.204,-0.0469 z m -11.592,-0.4777 c -0.082,-0.2752 0.058,-0.5661 0.314,-0.6543 0.257,-0.0883 0.529,0.0624 0.606,0.3375 0.082,0.2752 -0.058,0.566 -0.31,0.6543 -0.054,0.0157 -0.102,0.0208 -0.15,0.0208 -0.203,0 -0.397,-0.1403 -0.46,-0.3583 z m 9.849,-0.2077 v 0.0053 c -0.256,-0.0781 -0.406,-0.369 -0.334,-0.6441 0.073,-0.2752 0.339,-0.4362 0.596,-0.3584 0.257,0.0779 0.407,0.3637 0.334,0.6388 -0.058,0.2285 -0.252,0.3792 -0.465,0.3792 -0.044,0 -0.087,-0.0051 -0.131,-0.0208 z m -7.994,-0.3842 c -0.063,-0.2805 0.101,-0.561 0.363,-0.6234 0.261,-0.0624 0.518,0.1091 0.581,0.3895 0.058,0.2805 -0.107,0.561 -0.363,0.6234 -0.039,0.0104 -0.073,0.0104 -0.112,0.0104 -0.218,0 -0.421,-0.161 -0.469,-0.3999 z M 111.932,25.5057 c -0.218,-0.1661 -0.271,-0.4881 -0.116,-0.727 0.155,-0.2338 0.455,-0.2856 0.678,-0.1248 0.217,0.1664 0.266,0.4935 0.116,0.7273 -0.097,0.1403 -0.247,0.2181 -0.397,0.2181 -0.097,0 -0.194,-0.0312 -0.281,-0.0936 z m 111.115,-0.3895 c -0.034,-0.2855 0.155,-0.5452 0.421,-0.5817 0.261,-0.0363 0.504,0.161 0.538,0.4468 0.034,0.2856 -0.15,0.5453 -0.417,0.5815 -0.019,0 -0.044,0.0053 -0.063,0.0053 -0.242,0 -0.445,-0.1922 -0.479,-0.4519 z m 4.281,0.4104 c -0.267,-0.0313 -0.456,-0.2909 -0.422,-0.5765 0.029,-0.2858 0.271,-0.4881 0.538,-0.4519 0.266,0.0363 0.455,0.296 0.421,0.5764 -0.029,0.265 -0.237,0.4573 -0.479,0.4573 -0.019,0 -0.039,0 -0.058,-0.0053 z m -2.359,-0.6181 c 0,-0.2908 0.213,-0.5246 0.48,-0.5246 0.266,-0.0051 0.489,0.2233 0.489,0.5142 0.005,0.2856 -0.208,0.5194 -0.475,0.5245 h -0.009 c -0.267,0 -0.48,-0.2285 -0.485,-0.5141 z m -56.414,0.1402 c -0.175,-0.218 -0.145,-0.5452 0.058,-0.7323 0.203,-0.1818 0.508,-0.1557 0.683,0.0675 0.169,0.2183 0.145,0.5454 -0.064,0.7323 -0.087,0.0779 -0.198,0.1195 -0.309,0.1195 -0.136,0 -0.277,-0.0624 -0.368,-0.187 z M 113.06,23.8178 c -0.213,-0.1714 -0.256,-0.4985 -0.097,-0.727 0.16,-0.2285 0.46,-0.2752 0.678,-0.104 0.213,0.1714 0.257,0.4986 0.097,0.7273 -0.097,0.1349 -0.242,0.2077 -0.387,0.2077 -0.102,0 -0.204,-0.0312 -0.291,-0.104 z m 54.279,-0.4258 c -0.155,-0.2284 -0.111,-0.5558 0.102,-0.727 0.218,-0.1663 0.518,-0.1194 0.678,0.1091 0.16,0.2335 0.116,0.5556 -0.102,0.727 -0.087,0.0674 -0.189,0.1037 -0.286,0.1037 -0.15,0 -0.295,-0.0725 -0.392,-0.2128 z m -53.112,-1.2256 c -0.208,-0.1767 -0.242,-0.5039 -0.077,-0.7323 0.164,-0.2235 0.469,-0.2597 0.682,-0.0832 0.209,0.1818 0.243,0.5089 0.078,0.7324 -0.097,0.1298 -0.237,0.1973 -0.383,0.1973 -0.101,0 -0.208,-0.0363 -0.3,-0.1142 z m 51.984,-0.483 c -0.15,-0.2338 -0.092,-0.561 0.126,-0.722 0.223,-0.161 0.523,-0.0987 0.673,0.1351 0.15,0.2389 0.097,0.5607 -0.126,0.7217 -0.082,0.0624 -0.179,0.0936 -0.271,0.0936 -0.155,0 -0.31,-0.0778 -0.402,-0.2284 z m -50.768,-1.1323 c -0.204,-0.187 -0.233,-0.5141 -0.059,-0.7322 0.175,-0.2183 0.48,-0.2442 0.683,-0.0624 0.204,0.187 0.228,0.5141 0.058,0.7322 -0.097,0.1247 -0.232,0.1871 -0.373,0.1871 -0.111,0 -0.218,-0.0416 -0.309,-0.1247 z m 49.693,-0.5972 c -0.15,-0.2442 -0.087,-0.5661 0.135,-0.7221 0.223,-0.1557 0.528,-0.0882 0.674,0.1507 0.145,0.2389 0.082,0.561 -0.141,0.7167 -0.082,0.0573 -0.174,0.0885 -0.266,0.0885 -0.155,0 -0.31,-0.0832 -0.402,-0.2338 z m -48.434,-0.9764 c -0.199,-0.1922 -0.213,-0.5193 -0.034,-0.7324 0.179,-0.213 0.484,-0.2335 0.682,-0.0362 0.199,0.1922 0.218,0.5193 0.034,0.7321 -0.092,0.1144 -0.222,0.1714 -0.358,0.1714 -0.116,0 -0.232,-0.0466 -0.324,-0.1349 z m 47.373,-0.7583 c -0.15,-0.2388 -0.087,-0.5609 0.136,-0.7219 0.223,-0.1557 0.523,-0.0936 0.673,0.1506 0.145,0.2389 0.082,0.561 -0.14,0.7167 -0.083,0.0571 -0.175,0.0882 -0.267,0.0882 -0.155,0 -0.31,-0.0829 -0.402,-0.2336 z m -46.061,-0.7685 c -0.194,-0.1976 -0.199,-0.5298 -0.015,-0.7324 0.189,-0.2077 0.494,-0.2131 0.688,-0.0155 0.189,0.2024 0.194,0.5297 0.01,0.7374 -0.097,0.1037 -0.223,0.1557 -0.349,0.1557 -0.121,0 -0.242,-0.0466 -0.334,-0.1452 z m 44.987,-0.9455 c -0.151,-0.2388 -0.097,-0.5609 0.125,-0.7217 0.218,-0.1663 0.523,-0.104 0.673,0.1299 0.151,0.2389 0.097,0.5607 -0.126,0.7217 -0.082,0.0624 -0.179,0.0935 -0.271,0.0935 -0.155,0 -0.305,-0.0778 -0.401,-0.2234 z M 119.37,15.9755 c -0.184,-0.2077 -0.175,-0.5349 0.019,-0.7321 0.189,-0.2027 0.499,-0.1923 0.683,0.0154 0.184,0.2077 0.179,0.5351 -0.014,0.7324 -0.097,0.0986 -0.218,0.1453 -0.335,0.1453 -0.13,0 -0.256,-0.057 -0.353,-0.161 z m 42.516,-1.1374 c -0.164,-0.2285 -0.121,-0.5556 0.093,-0.727 0.218,-0.1715 0.518,-0.1298 0.678,0.104 h 0.004 c 0.16,0.2284 0.117,0.5505 -0.096,0.727 -0.087,0.0675 -0.194,0.1037 -0.291,0.1037 -0.15,0 -0.295,-0.0725 -0.388,-0.2077 z m -41.102,-0.2805 c -0.179,-0.218 -0.16,-0.5452 0.043,-0.7321 0.199,-0.1922 0.504,-0.1714 0.683,0.0467 0.175,0.213 0.155,0.5402 -0.044,0.7324 -0.091,0.0882 -0.208,0.1298 -0.319,0.1298 -0.136,0 -0.266,-0.0624 -0.363,-0.1768 z m 39.911,-1.3138 c -0.174,-0.2181 -0.15,-0.5506 0.054,-0.7324 0.203,-0.1869 0.508,-0.161 0.682,0.0571 0.174,0.2183 0.15,0.5455 -0.053,0.7323 -0.092,0.0832 -0.203,0.1248 -0.314,0.1248 -0.136,0 -0.272,-0.0624 -0.369,-0.1818 z m -38.449,-0.0416 c -0.165,-0.2234 -0.135,-0.5506 0.073,-0.727 0.208,-0.1819 0.513,-0.1456 0.683,0.0727 0.169,0.2285 0.135,0.5503 -0.073,0.7322 -0.092,0.0778 -0.198,0.1143 -0.305,0.1143 -0.141,0 -0.281,-0.0623 -0.378,-0.1922 z m 1.521,-1.2829 c -0.16,-0.2336 -0.112,-0.5557 0.101,-0.7271 0.218,-0.1714 0.523,-0.1194 0.678,0.1144 0.16,0.2285 0.112,0.5556 -0.101,0.722 -0.087,0.0674 -0.189,0.1037 -0.286,0.1037 -0.15,0 -0.295,-0.0728 -0.392,-0.213 z m 35.645,-0.1661 c -0.194,-0.2026 -0.194,-0.5348 -0.005,-0.7375 0.189,-0.2026 0.494,-0.2026 0.688,0 0.189,0.2027 0.189,0.5298 0,0.7324 -0.092,0.1037 -0.218,0.1557 -0.344,0.1557 -0.121,0 -0.247,-0.052 -0.339,-0.1506 z M 125.34,10.7094 c -0.15,-0.2389 -0.087,-0.561 0.136,-0.71692 0.223,-0.16079 0.523,-0.09333 0.673,0.14562 0.146,0.2388 0.083,0.5609 -0.14,0.7219 -0.083,0.0571 -0.175,0.083 -0.267,0.083 -0.154,0 -0.31,-0.0779 -0.402,-0.2336 z m 32.668,-0.3117 C 157.8,10.2159 157.77,9.88876 157.94,9.66534 c 0.169,-0.22317 0.474,-0.25433 0.683,-0.07276 0.203,0.18182 0.237,0.50892 0.068,0.73232 -0.097,0.1248 -0.238,0.1869 -0.378,0.1869 -0.107,0 -0.213,-0.0362 -0.305,-0.1141 z m -31.04,-0.81021 c -0.136,-0.2442 -0.063,-0.56096 0.169,-0.70622 0.232,-0.15067 0.528,-0.06773 0.663,0.18156 0.136,0.24421 0.059,0.56626 -0.174,0.71158 h 0.005 c -0.077,0.04689 -0.165,0.07276 -0.247,0.07276 -0.169,0 -0.329,-0.09359 -0.416,-0.25968 z m 29.524,-0.39482 c -0.218,-0.16079 -0.281,-0.48285 -0.13,-0.72175 0.149,-0.23885 0.45,-0.30128 0.672,-0.14023 0.223,0.16106 0.281,0.48285 0.131,0.72196 -0.092,0.14532 -0.247,0.22852 -0.402,0.22852 -0.092,0 -0.189,-0.03122 -0.271,-0.0885 z M 128.643,8.55916 c -0.121,-0.25459 -0.029,-0.56599 0.208,-0.70118 0.238,-0.12984 0.528,-0.03116 0.654,0.22342 0.121,0.25439 0.029,0.56605 -0.208,0.70119 -0.073,0.03625 -0.145,0.05707 -0.223,0.05707 -0.174,0 -0.344,-0.10397 -0.431,-0.2805 z m 26.236,-0.41538 c -0.237,-0.13514 -0.324,-0.4519 -0.193,-0.70648 0.126,-0.24929 0.421,-0.34262 0.654,-0.20769 0.237,0.14022 0.324,0.45189 0.194,0.70622 -0.088,0.17144 -0.253,0.27012 -0.427,0.27012 -0.077,0 -0.155,-0.02083 -0.228,-0.06217 z M 130.372,7.62951 c -0.111,-0.26477 -0.005,-0.57134 0.242,-0.6908 0.242,-0.1141 0.528,0 0.639,0.25968 0.111,0.26503 0.005,0.57135 -0.242,0.6908 -0.063,0.03121 -0.131,0.04664 -0.198,0.04664 -0.185,0 -0.359,-0.11411 -0.441,-0.30632 z M 153.18,7.25547 c -0.247,-0.11411 -0.359,-0.42047 -0.252,-0.68545 0.107,-0.26477 0.392,-0.38422 0.639,-0.27011 0.242,0.11441 0.354,0.42073 0.247,0.6855 -0.077,0.19221 -0.256,0.31166 -0.445,0.31166 -0.063,0 -0.126,-0.01548 -0.189,-0.0416 z M 132.144,6.80384 c -0.092,-0.27013 0.034,-0.56631 0.286,-0.67003 0.252,-0.09862 0.528,0.03626 0.625,0.30637 0.092,0.26498 -0.034,0.566 -0.286,0.66997 -0.053,0.02078 -0.111,0.03121 -0.17,0.03121 -0.193,0 -0.377,-0.12984 -0.455,-0.33752 z m 19.268,-0.28051 c -0.251,-0.09358 -0.387,-0.38952 -0.3,-0.65959 0.082,-0.27541 0.358,-0.41563 0.61,-0.32713 0.257,0.09332 0.392,0.38951 0.305,0.65958 -0.067,0.21813 -0.256,0.35301 -0.46,0.35301 -0.053,0 -0.101,-0.01039 -0.155,-0.02587 z M 133.97,6.10769 c -0.078,-0.27515 0.068,-0.56599 0.319,-0.64919 h 0.005 c 0.252,-0.08289 0.523,0.07281 0.601,0.34817 0.077,0.27516 -0.068,0.56604 -0.325,0.6492 -0.043,0.01548 -0.092,0.02057 -0.14,0.02057 -0.208,0 -0.397,-0.14532 -0.46,-0.36875 z m 15.627,-0.161 c -0.262,-0.07256 -0.417,-0.35301 -0.354,-0.63351 0.068,-0.27536 0.329,-0.44654 0.591,-0.37404 0.256,0.06772 0.416,0.35327 0.348,0.62842 -0.053,0.23911 -0.251,0.39482 -0.469,0.39482 -0.039,0 -0.078,-0.0053 -0.116,-0.01569 z M 135.829,5.5417 c -0.063,-0.28051 0.102,-0.56096 0.359,-0.62334 0.261,-0.06746 0.523,0.10398 0.581,0.38443 0.063,0.2805 -0.097,0.56095 -0.358,0.62333 -0.039,0.01039 -0.073,0.01548 -0.112,0.01548 -0.218,0 -0.421,-0.16105 -0.47,-0.3999 z m 1.889,-0.44151 c -0.044,-0.2805 0.136,-0.55057 0.397,-0.59721 0.266,-0.04669 0.513,0.14532 0.557,0.42577 0.048,0.2858 -0.131,0.55057 -0.397,0.59747 -0.024,0.00509 -0.054,0.01039 -0.078,0.01039 -0.232,0 -0.44,-0.18183 -0.479,-0.43642 z m 10.019,0.42068 c -0.262,-0.04664 -0.436,-0.31671 -0.392,-0.59721 0.048,-0.28554 0.295,-0.47267 0.561,-0.42577 0.262,0.05173 0.441,0.31675 0.393,0.6023 -0.039,0.25459 -0.247,0.43112 -0.475,0.43112 -0.029,0 -0.058,-0.00509 -0.087,-0.01044 z m -8.106,-0.72705 c -0.029,-0.28554 0.169,-0.54013 0.431,-0.57134 h 0.004 c 0.262,-0.02587 0.499,0.18183 0.528,0.46737 0.029,0.28579 -0.164,0.54018 -0.431,0.5663 -0.019,0 -0.034,0.00504 -0.053,0.00504 -0.242,0 -0.455,-0.2026 -0.479,-0.46737 z m 6.227,0.45195 c -0.266,-0.03122 -0.46,-0.28581 -0.436,-0.56631 0.029,-0.29084 0.266,-0.49324 0.533,-0.46737 0.266,0.03121 0.46,0.2858 0.431,0.56605 -0.024,0.27006 -0.233,0.47266 -0.48,0.47266 -0.014,0 -0.034,-0.00503 -0.048,-0.00503 z m -4.3,-0.62843 c -0.01,-0.2858 0.198,-0.52974 0.465,-0.54013 0.271,-0.01044 0.494,0.21808 0.504,0.50362 0.009,0.28581 -0.199,0.52465 -0.465,0.5351 h -0.02 c -0.257,0 -0.474,-0.21813 -0.484,-0.49859 z m 2.402,0.49324 c -0.267,-0.0051 -0.475,-0.24929 -0.465,-0.53484 0.005,-0.2858 0.227,-0.50897 0.499,-0.50388 0.266,0.01039 0.474,0.24929 0.464,0.5351 -0.004,0.28045 -0.222,0.50362 -0.479,0.50362 z"
       fill="#d0cdc4"
       id="path3" />
    <path
       d="m 223.633,87.7662 c -0.034,0 -0.063,-0.0051 -0.097,-0.0104 -0.03,-0.0051 -0.058,-0.0155 -0.087,-0.0309 -0.03,-0.0104 -0.058,-0.0262 -0.088,-0.0469 -0.024,-0.0209 -0.048,-0.0416 -0.072,-0.0624 -0.088,-0.0987 -0.141,-0.2285 -0.141,-0.3688 0,-0.0674 0.015,-0.1349 0.039,-0.1973 0.024,-0.0674 0.058,-0.1194 0.102,-0.1714 0.024,-0.0208 0.048,-0.0466 0.072,-0.0621 0.03,-0.0208 0.058,-0.0365 0.088,-0.0469 0.029,-0.0155 0.057,-0.0259 0.087,-0.0312 0.16,-0.0312 0.324,0.0208 0.441,0.1402 0.086,0.0987 0.14,0.2338 0.14,0.3687 0,0.1403 -0.054,0.2701 -0.14,0.3688 -0.093,0.0935 -0.219,0.1506 -0.344,0.1506 z"
       fill="#d0cdc4"
       id="path4" />
  </g>
  <path
     d="m 231.15955,125.99742 c 2.24548,-14.22662 8.39667,-27.705262 17.47421,-38.285315 0.28785,14.956315 -3.38523,29.769625 -11.5429,41.851695 -2.30922,-0.82583 -4.50584,-1.43689 -5.93131,-3.56638 z"
     fill="#ffd6e2"
     id="path5"
     style="stroke-width:1.10455" />
  <path
     d="m 112.24656,170.51466 c 13.56851,20.05562 35.93838,32.31687 58.38155,31.99871 0.0319,0 0.0627,-0.007 0.0903,-0.0173 0.10622,-0.0413 0.18269,-0.15162 0.18163,-0.28026 0.001,-1.42311 0.068,-2.90595 0.13278,-4.34054 0.27723,-6.14498 0.56402,-12.49786 -4.20949,-15.96202 -15.84692,-11.50088 -35.67709,-15.82535 -54.40681,-11.86843 -0.0914,0.0207 -0.16995,0.0896 -0.20394,0.18492 -0.034,0.0953 -0.0212,0.20216 0.034,0.28485 z m 0.70423,0.0275 c 18.46099,-3.77313 37.95975,0.54098 53.56449,11.86498 4.5154,3.27695 4.24879,9.18532 3.96731,15.43942 -0.0605,1.3427 -0.12322,2.72906 -0.13278,4.07406 -22.03634,0.21249 -43.96541,-11.77884 -57.39902,-31.37846 z"
     fill="#ffa5c0"
     fill-opacity="0.65"
     id="path6"
     style="stroke-width:1.10455" />
  <path
     d="m 236.98358,45.462306 h -69.82142 c -7.12947,0 -12.90995,6.250193 -12.90995,13.960252 V 218.05615 c 0,7.70936 5.78048,13.96002 12.90995,13.96002 h 69.82142 c 7.13053,0 12.90994,-6.25066 12.90994,-13.96002 V 59.422558 c 0,-7.710059 -5.77941,-13.960252 -12.90994,-13.960252 z"
     fill="#5d0f36"
     id="path7"
     style="stroke-width:1.10455" />
  <path
     d="m 233.12143,45.462306 h -69.82142 c -7.12947,0 -12.90995,6.250193 -12.90995,13.960252 V 218.05615 c 0,7.70936 5.78048,13.96002 12.90995,13.96002 h 69.82142 c 7.13053,0 12.911,-6.25066 12.911,-13.96002 V 59.422558 c 0,-7.710059 -5.78047,-13.960252 -12.911,-13.960252 z"
     fill="#d61750"
     id="path8"
     style="stroke-width:1.10455" />
  <path
     d="M 233.12249,49.637792 H 220.1042 c 0,5.782946 -4.33483,10.470936 -9.68299,10.470936 h -25.05405 c -4.99764,0 -9.04886,-4.380625 -9.04886,-9.78442 0,-0.379151 -0.28361,-0.686516 -0.63413,-0.686516 h -12.3831 c -4.99764,0 -9.04886,4.380627 -9.04886,9.784536 V 218.05615 c 0,5.40413 4.05122,9.78487 9.04886,9.78487 h 69.82142 c 4.99764,0 9.04886,-4.38074 9.04886,-9.78487 V 59.422328 c 0,-5.403909 -4.05122,-9.784536 -9.04886,-9.784536 z"
     fill="#ffb0c8"
     id="path9"
     style="stroke-width:1.10455" />
  <path
     d="m 161.52508,57.116294 h -0.88269 v 1.028223 h 0.88269 z"
     fill="#d61750"
     id="path10"
     style="stroke-width:1.10455" />
  <path
     d="m 163.41579,56.161467 h -0.88269 v 1.982934 h 0.88269 z"
     fill="#d61750"
     id="path11"
     style="stroke-width:1.10455" />
  <path
     d="m 165.30862,55.059965 h -0.88268 v 3.084781 h 0.88268 z"
     fill="#d61750"
     id="path12"
     style="stroke-width:1.10455" />
  <path
     d="m 167.2004,53.517057 h -0.88375 v 4.627229 h 0.88375 z"
     fill="#d61750"
     id="path13"
     style="stroke-width:1.10455" />
  <path
     d="m 230.50417,78.10388 h -64.95655 c -2.19238,0 -3.97049,1.922288 -3.97049,4.293447 v 7.119106 c 0,2.37116 1.77811,4.293448 3.97049,4.293448 h 64.95655 c 2.19238,0 3.9705,-1.922288 3.9705,-4.293448 v -7.119106 c 0,-2.371159 -1.77812,-4.293447 -3.9705,-4.293447 z"
     fill="#d61750"
     id="path14"
     style="stroke-width:1.10455" />
  <path
     d="m 247.91996,102.44686 c -0.52154,0 -0.94429,-0.45738 -0.94429,-1.02145 V 89.181963 c 0,-0.564075 0.42275,-1.021446 0.94429,-1.021446 0.52154,0 0.94536,0.457371 0.94536,1.021446 v 12.243447 c 0,0.56407 -0.42382,1.02145 -0.94536,1.02145 z"
     fill="#6e1340"
     id="path15"
     style="stroke-width:1.10455" />
  <path
     d="m 200.02654,53.668327 c 0,1.194309 -0.89543,2.162574 -2.00011,2.162574 -1.10469,0 -2.00012,-0.968265 -2.00012,-2.162574 0,-1.194424 0.89543,-2.162689 2.00012,-2.162689 1.10468,0 2.00011,0.968265 2.00011,2.162689 z"
     fill="#6e1340"
     id="path16"
     style="stroke-width:1.10455" />
  <path
     d="m 172.22565,101.09266 h -5.59671 c -2.78933,0 -5.05181,2.44536 -5.05181,5.46191 v 6.05161 c 0,3.01713 2.26248,5.46248 5.05181,5.46248 h 5.59671 c 2.78933,0 5.05075,-2.44535 5.05075,-5.46248 v -6.05161 c 0,-3.01655 -2.26142,-5.46191 -5.05075,-5.46191 z"
     fill="#ffffff"
     id="path17"
     style="stroke-width:1.10455" />
  <path
     d="m 191.2921,101.09266 h -5.59672 c -2.78933,0 -5.05075,2.44536 -5.05075,5.46191 v 6.05161 c 0,3.01713 2.26142,5.46248 5.05075,5.46248 h 5.59672 c 2.78933,0 5.05074,-2.44535 5.05074,-5.46248 v -6.05161 c 0,-3.01655 -2.26141,-5.46191 -5.05074,-5.46191 z"
     fill="#ffffff"
     id="path18"
     style="stroke-width:1.10455" />
  <path
     d="m 210.35748,101.09266 h -5.59672 c -2.78933,0 -5.05075,2.44536 -5.05075,5.46191 v 6.05161 c 0,3.01713 2.26142,5.46248 5.05075,5.46248 h 5.59672 c 2.78933,0 5.05074,-2.44535 5.05074,-5.46248 v -6.05161 c 0,-3.01655 -2.26141,-5.46191 -5.05074,-5.46191 z"
     fill="#5d0f36"
     id="path19"
     style="stroke-width:1.10455" />
  <path
     d="m 229.42498,101.09266 h -5.59672 c -2.78933,0 -5.05075,2.44536 -5.05075,5.46191 v 6.05161 c 0,3.01713 2.26142,5.46248 5.05075,5.46248 h 5.59672 c 2.78933,0 5.05075,-2.44535 5.05075,-5.46248 v -6.05161 c 0,-3.01655 -2.26142,-5.46191 -5.05075,-5.46191 z"
     fill="#ff2e6d"
     id="path20"
     style="stroke-width:1.10455" />
  <path
     d="m 172.22565,125.35191 h -5.59671 c -2.78933,0 -5.05181,2.44535 -5.05181,5.46157 v 6.05194 c 0,3.01621 2.26248,5.46156 5.05181,5.46156 h 5.59671 c 2.78933,0 5.05075,-2.44535 5.05075,-5.46156 v -6.05194 c 0,-3.01622 -2.26142,-5.46157 -5.05075,-5.46157 z"
     fill="#ff2e6d"
     id="path21"
     style="stroke-width:1.10455" />
  <path
     d="m 191.2921,125.35191 h -5.59672 c -2.78933,0 -5.05075,2.44535 -5.05075,5.46157 v 6.05194 c 0,3.01621 2.26142,5.46156 5.05075,5.46156 h 5.59672 c 2.78933,0 5.05074,-2.44535 5.05074,-5.46156 v -6.05194 c 0,-3.01622 -2.26141,-5.46157 -5.05074,-5.46157 z"
     fill="#ff2e6d"
     id="path22"
     style="stroke-width:1.10455" />
  <path
     d="m 210.35748,125.35191 h -5.59672 c -2.78933,0 -5.05075,2.44535 -5.05075,5.46157 v 6.05194 c 0,3.01621 2.26142,5.46156 5.05075,5.46156 h 5.59672 c 2.78933,0 5.05074,-2.44535 5.05074,-5.46156 v -6.05194 c 0,-3.01622 -2.26141,-5.46157 -5.05074,-5.46157 z"
     fill="#ff2e6d"
     id="path23"
     style="stroke-width:1.10455" />
  <path
     d="m 229.42498,125.35191 h -5.59672 c -2.78933,0 -5.05075,2.44535 -5.05075,5.46157 v 6.05194 c 0,3.01621 2.26142,5.46156 5.05075,5.46156 h 5.59672 c 2.78933,0 5.05075,-2.44535 5.05075,-5.46156 v -6.05194 c 0,-3.01622 -2.26142,-5.46157 -5.05075,-5.46157 z"
     fill="#ff2e6d"
     id="path24"
     style="stroke-width:1.10455" />
  <path
     d="m 190.03233,71.99726 v -5.949607 h 2.31878 c 0.58739,0 1.10362,0.124622 1.54868,0.373982 0.45037,0.249361 0.79877,0.597729 1.0452,1.045451 0.25174,0.447608 0.37708,0.966083 0.37708,1.555313 0,0.589345 -0.12534,1.10782 -0.37708,1.555428 -0.24643,0.447606 -0.59483,0.79609 -1.0452,1.045451 -0.44506,0.249245 -0.96129,0.373982 -1.54868,0.373982 z m 0.78603,-0.739466 h 1.48601 c 0.45568,0 0.8487,-0.09349 1.17904,-0.280486 0.33459,-0.186991 0.59483,-0.447608 0.77753,-0.781964 0.18376,-0.339984 0.27511,-0.730966 0.27511,-1.172945 0,-0.447607 -0.0913,-0.838589 -0.27511,-1.17283 -0.1827,-0.334356 -0.44294,-0.594973 -0.77753,-0.781964 -0.33034,-0.186991 -0.72336,-0.280486 -1.17904,-0.280486 h -1.48601 z m 4.79794,0.739466 2.49192,-5.949607 h 0.77752 l 2.50042,5.949607 h -0.82533 l -2.2253,-5.473629 h 0.31441 l -2.22424,5.473629 z m 1.06114,-1.487431 0.21244,-0.679968 h 3.0963 l 0.22837,0.679968 z m 6.5272,1.487431 v -2.277893 l 0.18057,0.526975 -2.36551,-4.198689 h 0.84126 l 1.98843,3.54422 h -0.45568 l 1.99587,-3.54422 h 0.77859 l -2.35808,4.198689 0.17314,-0.526975 v 2.277893 z"
     fill="#ffffff"
     id="path25"
     style="stroke-width:1.10455" />
  <path
     d="m 182.43549,89.194137 v -5.949491 h 0.33778 l 2.55459,4.768161 h -0.18058 l 2.54609,-4.768161 h 0.33034 l 0.007,5.949491 h -0.39301 l -0.007,-5.295022 h 0.11047 l -2.41331,4.50456 h -0.19651 l -2.42075,-4.50456 h 0.11791 v 5.295022 z m 9.8487,0.0425 c -0.40895,0 -0.78815,-0.07363 -1.13974,-0.220991 -0.34628,-0.152992 -0.65006,-0.365482 -0.91137,-0.63747 -0.25705,-0.277615 -0.45674,-0.597728 -0.59801,-0.96034 -0.14127,-0.368354 -0.21244,-0.767836 -0.21244,-1.198443 0,-0.430609 0.0712,-0.827219 0.21244,-1.189945 0.14127,-0.36824 0.34096,-0.688468 0.59801,-0.960455 0.26131,-0.277616 0.56509,-0.490106 0.91137,-0.637355 0.35159,-0.152993 0.73079,-0.229489 1.13974,-0.229489 0.40894,0 0.78602,0.0765 1.1323,0.229489 0.35053,0.147249 0.65431,0.356983 0.91137,0.628855 0.25705,0.271987 0.45568,0.592216 0.59695,0.960456 0.14658,0.362726 0.22094,0.762092 0.22094,1.198444 0,0.43635 -0.0744,0.838588 -0.22094,1.206942 -0.14127,0.362613 -0.3399,0.679969 -0.59695,0.951841 -0.25706,0.271988 -0.56084,0.484478 -0.91137,0.63747 -0.34628,0.147365 -0.72336,0.220991 -1.1323,0.220991 z m 0,-0.399482 c 0.35159,0 0.67556,-0.06513 0.9751,-0.195491 0.29847,-0.130251 0.55765,-0.314485 0.77752,-0.552359 0.21988,-0.237989 0.39089,-0.515719 0.51092,-0.832961 0.1264,-0.317357 0.18907,-0.66297 0.18907,-1.036951 0,-0.379612 -0.0627,-0.725338 -0.18907,-1.036952 -0.12003,-0.317242 -0.29104,-0.594972 -0.51092,-0.832961 -0.21987,-0.23799 -0.47905,-0.422109 -0.77752,-0.552359 -0.29954,-0.130367 -0.62351,-0.195491 -0.9751,-0.195491 -0.35159,0 -0.67556,0.06512 -0.9751,0.195491 -0.29848,0.13025 -0.55978,0.314369 -0.78603,0.552359 -0.21987,0.237989 -0.39301,0.515719 -0.51835,0.832961 -0.12003,0.311614 -0.18057,0.65734 -0.18057,1.036952 0,0.373981 0.0605,0.719594 0.18057,1.036951 0.12534,0.317242 0.29848,0.594972 0.51835,0.832961 0.22625,0.237874 0.48755,0.422108 0.78603,0.552359 0.29954,0.130366 0.62351,0.195491 0.9751,0.195491 z m 4.25197,0.356983 v -5.949496 h 0.33778 l 3.92164,5.414017 H 200.615 v -5.414017 h 0.40045 v 5.949491 h -0.32928 l -3.93013,-5.414016 h 0.18057 v 5.414016 z m 6.4008,0 v -5.949496 h 2.17751 c 0.58208,0 1.093,0.127494 1.53275,0.382482 0.43975,0.254988 0.78072,0.606229 1.02183,1.053835 0.24643,0.447722 0.36965,0.960456 0.36965,1.538429 0,0.577972 -0.12322,1.090706 -0.36965,1.538427 -0.24111,0.447608 -0.58208,0.798848 -1.02183,1.053836 -0.43975,0.254989 -0.95067,0.382482 -1.53275,0.382482 z m 0.40152,-0.390982 h 1.74412 c 0.51942,0 0.96979,-0.110491 1.35218,-0.331484 0.38239,-0.220874 0.67874,-0.524104 0.888,-0.909343 0.21031,-0.390982 0.31441,-0.838588 0.31441,-1.342936 0,-0.504348 -0.1041,-0.949084 -0.31441,-1.334439 -0.20926,-0.390981 -0.50561,-0.696966 -0.888,-0.917842 -0.38239,-0.22099 -0.83276,-0.331484 -1.35218,-0.331484 h -1.74412 z m 5.09642,0.390982 2.53015,-5.949492 h 0.40151 l 2.53122,5.949492 h -0.43232 l -2.38994,-5.677505 h 0.17314 l -2.38145,5.677505 z m 0.9273,-1.674307 0.13383,-0.365483 h 3.29282 l 0.13383,0.365483 z m 6.50808,1.674307 v -2.158784 l 0.0945,0.280487 -2.31028,-4.071195 h 0.43975 l 2.0989,3.697212 h -0.21988 l 2.09784,-3.697212 h 0.41745 l -2.31135,4.071195 0.0945,-0.280487 v 2.158784 z"
     fill="#ffffff"
     id="path26"
     style="stroke-width:1.10455" />
  <path
     d="m 230.50417,147.97119 h -64.95655 c -2.19238,0 -3.97049,1.92275 -3.97049,4.29344 v 7.11899 c 0,2.37185 1.77811,4.29345 3.97049,4.29345 h 64.95655 c 2.19238,0 3.9705,-1.9216 3.9705,-4.29345 v -7.11899 c 0,-2.37069 -1.77812,-4.29344 -3.9705,-4.29344 z"
     fill="#5d0f36"
     id="path27"
     style="stroke-width:1.10455" />
  <path
     d="m 167.02089,158.69676 v -5.94972 h 2.46854 c 0.63414,0 1.12062,0.13898 1.46159,0.41694 0.34096,0.27222 0.51091,0.64551 0.51091,1.12218 0,0.32275 -0.068,0.59497 -0.20394,0.8155 -0.13171,0.22169 -0.3091,0.39168 -0.53535,0.50997 -0.22518,0.11947 -0.46842,0.17918 -0.73079,0.17918 l 0.14127,-0.25498 c 0.31442,0 0.59271,0.0586 0.83383,0.17803 0.24112,0.11946 0.43231,0.29404 0.57359,0.52721 0.14127,0.22627 0.21244,0.50997 0.21244,0.84995 0,0.50999 -0.17845,0.90625 -0.53429,1.18995 -0.35159,0.27681 -0.87525,0.41579 -1.57205,0.41579 z m 0.78602,-0.688 h 1.80786 c 0.4355,0 0.76797,-0.0792 0.99847,-0.23776 0.23049,-0.15851 0.34521,-0.4089 0.34521,-0.74888 0,-0.34458 -0.11472,-0.59728 -0.34521,-0.75579 -0.2305,-0.15849 -0.56297,-0.23776 -0.99847,-0.23776 h -1.87796 v -0.68915 h 1.68146 c 0.39832,0 0.70742,-0.0792 0.92729,-0.23776 0.21988,-0.15851 0.33035,-0.39627 0.33035,-0.71328 0,-0.31816 -0.11047,-0.55592 -0.33035,-0.71443 -0.21987,-0.1585 -0.52897,-0.23775 -0.92729,-0.23775 h -1.61136 z m 7.64676,0.75577 c -0.41957,0 -0.80939,-0.0758 -1.1716,-0.22857 -0.35584,-0.15392 -0.66494,-0.3664 -0.9273,-0.63747 -0.26236,-0.27796 -0.46631,-0.60072 -0.61289,-0.96942 -0.14658,-0.36869 -0.21987,-0.7707 -0.21987,-1.20716 0,-0.43647 0.0733,-0.83848 0.21987,-1.20603 0.14658,-0.3687 0.35053,-0.68916 0.61289,-0.96138 0.26236,-0.27681 0.57146,-0.49274 0.9273,-0.64551 0.3569,-0.15276 0.74672,-0.22972 1.1716,-0.22972 0.41957,0 0.80408,0.0769 1.15567,0.22972 0.35584,0.14702 0.66494,0.35951 0.9273,0.63747 0.26661,0.27222 0.47162,0.59153 0.61289,0.96023 0.14658,0.3687 0.21987,0.77415 0.21987,1.21522 0,0.4422 -0.0733,0.84766 -0.21987,1.21635 -0.14127,0.36755 -0.34628,0.69031 -0.61289,0.96827 -0.26236,0.27222 -0.57146,0.4847 -0.9273,0.63747 -0.35159,0.14702 -0.7361,0.22053 -1.15567,0.22053 z m 0,-0.75577 c 0.30379,0 0.58421,-0.0563 0.84126,-0.16999 0.2613,-0.11366 0.48649,-0.27223 0.67556,-0.47667 0.19438,-0.20905 0.34309,-0.45255 0.44825,-0.73051 0.1094,-0.27796 0.16464,-0.58119 0.16464,-0.90968 0,-0.3285 -0.0552,-0.63173 -0.16464,-0.90855 -0.10516,-0.27796 -0.25387,-0.51916 -0.44825,-0.72247 -0.18907,-0.21019 -0.41426,-0.37214 -0.67556,-0.48469 -0.25705,-0.11366 -0.53747,-0.17 -0.84126,-0.17 -0.3091,0 -0.59483,0.0563 -0.85719,0.17 -0.25599,0.1125 -0.48224,0.2745 -0.67556,0.48469 -0.19438,0.20331 -0.34628,0.44451 -0.45568,0.72247 -0.10516,0.27682 -0.15721,0.58005 -0.15721,0.90855 0,0.32849 0.0521,0.63172 0.15721,0.90968 0.1094,0.27796 0.2613,0.52146 0.45568,0.73051 0.19332,0.20444 0.41957,0.36295 0.67556,0.47667 0.26236,0.11366 0.54809,0.16999 0.85719,0.16999 z m 6.60156,0.75577 c -0.41957,0 -0.81046,-0.0758 -1.17161,-0.22857 -0.35583,-0.15392 -0.66599,-0.3664 -0.92729,-0.63747 -0.26237,-0.27796 -0.46631,-0.60072 -0.61289,-0.96942 -0.14659,-0.36869 -0.22094,-0.7707 -0.22094,-1.20716 0,-0.43647 0.0744,-0.83848 0.22094,-1.20603 0.14658,-0.3687 0.35052,-0.68916 0.61289,-0.96138 0.2613,-0.27681 0.57146,-0.49274 0.92729,-0.64551 0.35584,-0.15276 0.74673,-0.22972 1.17161,-0.22972 0.4185,0 0.80408,0.0769 1.15461,0.22972 0.35689,0.14702 0.66599,0.35951 0.92836,0.63747 0.26661,0.27222 0.47161,0.59153 0.61288,0.96023 0.14659,0.3687 0.21988,0.77415 0.21988,1.21522 0,0.4422 -0.0733,0.84766 -0.21988,1.21635 -0.14127,0.36755 -0.34627,0.69031 -0.61288,0.96827 -0.26237,0.27222 -0.57147,0.4847 -0.92836,0.63747 -0.35053,0.14702 -0.73611,0.22053 -1.15461,0.22053 z m 0,-0.75577 c 0.30379,0 0.58421,-0.0563 0.8402,-0.16999 0.26236,-0.11366 0.48754,-0.27223 0.67662,-0.47667 0.19332,-0.20905 0.34309,-0.45255 0.44824,-0.73051 0.10941,-0.27796 0.16464,-0.58119 0.16464,-0.90968 0,-0.3285 -0.0552,-0.63173 -0.16464,-0.90855 -0.10515,-0.27796 -0.25492,-0.51916 -0.44824,-0.72247 -0.18908,-0.21019 -0.41426,-0.37214 -0.67662,-0.48469 -0.25599,-0.11366 -0.53641,-0.17 -0.8402,-0.17 -0.3091,0 -0.59483,0.0563 -0.8572,0.17 -0.25705,0.1125 -0.48223,0.2745 -0.67555,0.48469 -0.19439,0.20331 -0.34628,0.44451 -0.45675,0.72247 -0.10409,0.27682 -0.1572,0.58005 -0.1572,0.90855 0,0.32849 0.0531,0.63172 0.1572,0.90968 0.11047,0.27796 0.26236,0.52146 0.45675,0.73051 0.19332,0.20444 0.4185,0.36295 0.67555,0.47667 0.26237,0.11366 0.5481,0.16999 0.8572,0.16999 z m 4.80856,-0.74774 -0.0393,-1.03718 3.12074,-3.4768 h 0.89543 l -2.41225,2.75433 -0.44081,0.5272 z m -0.69149,1.43574 v -5.94972 h 0.78603 v 5.94972 z m 3.89827,0 -2.25611,-2.83818 0.52685,-0.62942 2.64912,3.4676 z m 1.75156,0 v -5.94972 h 0.78603 v 5.94972 z m 2.43243,0 v -5.94972 h 0.64476 l 3.63909,4.88727 h -0.33778 v -4.88727 h 0.78602 v 5.94972 h -0.64475 l -3.63909,-4.88727 h 0.33778 v 4.88727 z m 8.86298,0.0678 c -0.42488,0 -0.81471,-0.0735 -1.17161,-0.22053 -0.35583,-0.15277 -0.66493,-0.36525 -0.92729,-0.63748 -0.26237,-0.27796 -0.46631,-0.60071 -0.61289,-0.96826 -0.14658,-0.36869 -0.21988,-0.77415 -0.21988,-1.21636 0,-0.44106 0.0733,-0.84651 0.21988,-1.21521 0.14658,-0.3687 0.35052,-0.68801 0.61289,-0.96023 0.26767,-0.27796 0.57889,-0.49045 0.93579,-0.63747 0.35584,-0.15276 0.74885,-0.22972 1.17904,-0.22972 0.43444,0 0.83276,0.0769 1.19391,0.22972 0.36221,0.15276 0.66812,0.38249 0.91986,0.68801 l -0.48754,0.5272 c -0.22519,-0.23776 -0.47162,-0.41004 -0.73823,-0.51801 -0.26236,-0.11365 -0.5481,-0.16999 -0.85719,-0.16999 -0.31442,0 -0.60758,0.0563 -0.88057,0.16999 -0.26661,0.11251 -0.50029,0.27222 -0.69892,0.47552 -0.19438,0.20445 -0.34628,0.44795 -0.45568,0.73165 -0.10516,0.27682 -0.15721,0.58004 -0.15721,0.90854 0,0.3239 0.0521,0.62598 0.15721,0.90969 0.1094,0.27796 0.2613,0.52145 0.45568,0.73051 0.19863,0.20444 0.43231,0.36295 0.69892,0.47667 0.26768,0.11365 0.55872,0.16999 0.87313,0.16999 0.29317,0 0.57359,-0.0482 0.84126,-0.14473 0.27192,-0.10226 0.52366,-0.26877 0.75416,-0.50193 l 0.44825,0.64666 c -0.27299,0.24924 -0.59271,0.43876 -0.95917,0.5697 -0.36114,0.12405 -0.7361,0.18607 -1.1238,0.18607 z m 1.32775,-0.86604 v -2.2099 h 0.75522 v 2.32017 z m 4.37094,0.79827 v -5.94972 h 0.64369 l 3.64015,4.88727 h -0.33884 v -4.88727 h 0.78602 v 5.94972 h -0.64369 l -3.64015,-4.88727 h 0.33884 v 4.88727 z m 8.86191,0.0678 c -0.41957,0 -0.80939,-0.0758 -1.17054,-0.22857 -0.3569,-0.15392 -0.666,-0.3664 -0.92836,-0.63748 -0.2613,-0.27796 -0.46631,-0.60071 -0.61289,-0.96941 -0.14658,-0.36869 -0.21988,-0.77071 -0.21988,-1.20717 0,-0.43647 0.0733,-0.83847 0.21988,-1.20602 0.14658,-0.3687 0.35159,-0.68917 0.61289,-0.96138 0.26236,-0.27681 0.57146,-0.49275 0.92836,-0.64551 0.35583,-0.15277 0.74672,-0.22972 1.17054,-0.22972 0.41957,0 0.80408,0.0769 1.15567,0.22972 0.35584,0.14702 0.66494,0.35951 0.9273,0.63747 0.26767,0.27221 0.47161,0.59153 0.61289,0.96023 0.14658,0.3687 0.21987,0.77415 0.21987,1.21521 0,0.44221 -0.0733,0.84767 -0.21987,1.21636 -0.14128,0.36755 -0.34522,0.6903 -0.61289,0.96826 -0.26236,0.27223 -0.57146,0.48471 -0.9273,0.63747 -0.35159,0.14702 -0.7361,0.22054 -1.15567,0.22054 z m 0,-0.75577 c 0.30379,0 0.58421,-0.0563 0.84126,-0.17 0.26236,-0.11365 0.48755,-0.27222 0.67556,-0.47667 0.19438,-0.20905 0.34309,-0.45254 0.44824,-0.7305 0.11047,-0.27796 0.16465,-0.5812 0.16465,-0.90969 0,-0.3285 -0.0542,-0.63172 -0.16465,-0.90854 -0.10515,-0.27796 -0.25386,-0.51917 -0.44824,-0.72247 -0.18801,-0.21019 -0.4132,-0.37215 -0.67556,-0.4847 -0.25705,-0.11366 -0.53747,-0.16999 -0.84126,-0.16999 -0.3091,0 -0.59483,0.0563 -0.85613,0.16999 -0.25705,0.11251 -0.48224,0.27451 -0.67662,0.4847 -0.19332,0.2033 -0.34522,0.44451 -0.45568,0.72247 -0.10516,0.27682 -0.15721,0.58004 -0.15721,0.90854 0,0.32849 0.0521,0.63173 0.15721,0.90969 0.11046,0.27796 0.26236,0.52145 0.45568,0.7305 0.19438,0.20445 0.41957,0.36296 0.67662,0.47667 0.2613,0.11366 0.54703,0.17 0.85613,0.17 z m 5.21433,0.688 -1.83973,-5.94973 h 0.81046 l 1.68889,5.49144 h -0.40788 l 1.75262,-5.49144 h 0.72336 l 1.71332,5.49144 h -0.39301 l 1.71332,-5.49144 h 0.74673 l -1.83973,5.94973 h -0.82532 l -1.60286,-5.09057 h 0.21244 l -1.61135,5.09057 z"
     fill="#ffffff"
     id="path28"
     style="stroke-width:1.10455" />
  <g
     opacity="0.2"
     id="g30">
    <path
       d="M 154.25115,185.56469 242.17029,90.495381 V 60.073007 l -87.91914,95.070003 z"
       fill="#ffffff"
       id="path29"
       style="stroke-width:1.10455" />
    <path
       d="m 242.17029,116.30327 v -15.21095 l -87.91914,95.07046 v 15.21084 z"
       fill="#ffffff"
       id="path30"
       style="stroke-width:1.10455" />
  </g>
  <path
     d="m 223.94829,56.730595 c 0,0.496883 -0.37283,0.899581 -0.83276,0.899581 -0.45887,0 -0.8317,-0.402698 -0.8317,-0.899581 0,-0.496996 0.37283,-0.899809 0.8317,-0.899809 0.45993,0 0.83276,0.402813 0.83276,0.899809 z"
     fill="#d61750"
     id="path31"
     style="stroke-width:1.10455" />
  <path
     d="m 227.45673,56.730595 c 0,0.496883 -0.37177,0.899581 -0.8317,0.899581 -0.45993,0 -0.8317,-0.402698 -0.8317,-0.899581 0,-0.496996 0.37177,-0.899809 0.8317,-0.899809 0.45993,0 0.8317,0.402813 0.8317,0.899809 z"
     fill="#d61750"
     id="path32"
     style="stroke-width:1.10455" />
  <path
     d="m 230.96941,56.730595 c 0,0.496883 -0.37283,0.899581 -0.8317,0.899581 -0.45993,0 -0.83276,-0.402698 -0.83276,-0.899581 0,-0.496996 0.37283,-0.899809 0.83276,-0.899809 0.45887,0 0.8317,0.402813 0.8317,0.899809 z"
     fill="#d61750"
     id="path33"
     style="stroke-width:1.10455" />
  <path
     d="m 234.47998,56.730595 c 0,0.496883 -0.37283,0.899581 -0.83277,0.899581 -0.45887,0 -0.8317,-0.402698 -0.8317,-0.899581 0,-0.496996 0.37283,-0.899809 0.8317,-0.899809 0.45994,0 0.83277,0.402813 0.83277,0.899809 z"
     fill="#d61750"
     id="path34"
     style="stroke-width:1.10455" />
  <path
     d="m 153.32598,72.432118 h -5.59672 c -2.78933,0 -5.05075,2.445473 -5.05075,5.462028 v 6.051602 c 0,3.016555 2.26142,5.461913 5.05075,5.461913 h 5.59672 c 2.78933,0 5.05074,-2.445358 5.05074,-5.461913 v -6.051602 c 0,-3.016555 -2.26141,-5.462028 -5.05074,-5.462028 z"
     fill="#5d0f36"
     id="path35"
     style="stroke-width:1.10455" />
  <path
     d="m 121.05748,60.269646 c 0.78709,5.422287 0.0266,11.094968 -2.14988,16.053452 -3.10374,0.05662 -6.7354,-0.7722 -9.00956,-3.057559 -2.27417,-2.28536 -3.56792,-5.751705 -3.12923,-9.075164 0.43762,-3.323459 2.70966,-6.355405 5.704,-7.243614 2.99433,-0.888323 8.10456,0.0064 8.58467,3.322885 z"
     fill="#f9c489"
     id="path36"
     style="stroke-width:1.10455" />
  <path
     d="m 110.30592,72.845383 c -0.37708,4.180884 -0.95173,8.340981 -1.71969,12.458808 2.62575,0.803212 5.73692,0.207207 8.27982,-0.862824 0.085,-3.710881 0.0382,-7.445537 0.12216,-11.156532 -1.98419,-0.990549 -4.49841,-0.519624 -6.68229,-0.439452 z"
     fill="#f9c489"
     id="path37"
     style="stroke-width:1.10455" />
  <path
     d="m 106.08082,82.682524 c -6.774694,5.943633 -11.96714,13.972197 -14.805331,22.892646 1.78173,8.92033 5.10354,17.5588 9.660151,25.2406 1.06114,-1.14745 2.96502,-1.68958 4.02626,-2.83703 -3.24246,-6.28282 -5.514502,-13.42891 -6.967057,-20.4505 2.822897,-3.1174 5.668417,-6.86377 7.927287,-10.478977 2.38686,-3.819767 1.23332,-9.905368 0.15869,-14.366739 z"
     fill="#f9c489"
     id="path38"
     style="stroke-width:1.10455" />
  <path
     d="m 101.56128,84.809031 c -3.199872,2.970382 -8.426839,11.000899 -10.285791,15.094261 1.533282,3.752578 4.880266,5.626618 9.005101,6.421338 1.79203,-1.81719 3.8717,-3.58201 5.66374,-5.39932 3.8836,-3.93876 -0.98115,-11.686607 -4.38305,-16.116279 z"
     fill="#ff2e6d"
     id="path39"
     style="stroke-width:1.10455" />
  <path
     d="m 116.37213,191.0814 c -0.82957,11.25738 -1.05901,22.56644 -0.6883,33.85254 1.45627,0.50422 3.3661,0.43876 4.88717,0.2745 1.81211,-10.19262 3.723,-20.45761 4.68004,-30.78578 -2.56308,-2.29374 -5.55848,-3.11728 -8.87891,-3.34126 z"
     fill="#f9c489"
     id="path40"
     style="stroke-width:1.10455" />
  <path
     d="m 92.169647,191.0814 c -0.829364,11.25738 -1.059117,22.56644 -0.687773,33.85254 1.455635,0.50422 3.365679,0.43876 4.886745,0.2745 1.811684,-10.19262 3.723211,-20.45761 4.679621,-30.78578 -2.56298,-2.29374 -5.558589,-3.11728 -8.878593,-3.34126 z"
     fill="#f9c489"
     id="path41"
     style="stroke-width:1.10455" />
  <path
     opacity="0.1"
     d="m 91.471571,204.41773 c 2.654537,0.84422 5.371638,1.45298 8.118586,1.81938 0.585693,-3.92934 1.092153,-7.86673 1.457653,-11.81445 -2.562975,-2.29374 -5.558584,-3.11728 -8.878588,-3.34126 -0.327051,4.43931 -0.557123,8.88667 -0.697651,13.33633 z"
     fill="#000000"
     id="path42"
     style="stroke-width:1.10455" />
  <path
     opacity="0.1"
     d="m 115.63922,205.69956 c 2.92635,-0.58693 5.80597,-1.44263 8.59317,-2.56251 0.29104,-2.1226 0.55022,-4.24751 0.77541,-6.37585 -2.98478,-0.94644 -5.91007,-1.886 -8.83111,-2.76467 -0.25068,3.89718 -0.42913,7.79896 -0.53747,11.70303 z"
     fill="#000000"
     id="path43"
     style="stroke-width:1.10455" />
  <path
     d="m 91.480918,224.93394 c -2.234969,2.05023 -4.210975,4.48181 -5.886697,7.08223 h 11.224982 c -0.3074,-2.27192 -0.144246,-4.53466 -0.45154,-6.80773 -1.485164,-0.22397 -3.401687,-0.0505 -4.886745,-0.2745 z"
     fill="#ff2e6d"
     id="path44"
     style="stroke-width:1.10455" />
  <path
     d="m 115.8421,224.69274 c -0.55872,2.40286 -1.11744,4.80572 -1.67615,7.20858 h 16.29092 c -0.15721,-2.19957 -2.22955,-3.55606 -4.07672,-4.49446 -1.84609,-0.93955 -3.89613,-1.40474 -5.63814,-2.55447 -1.1323,-0.7466 -3.5796,-0.0252 -4.89991,-0.15965 z"
     fill="#ff2e6d"
     id="path45"
     style="stroke-width:1.10455" />
  <path
     d="m 104.35273,116.18152 c -4.947926,9.894 -8.359598,20.68504 -10.049554,31.78392 -1.203682,7.90464 -1.540611,15.95629 -3.047337,23.80004 -1.506621,7.8449 -4.334934,15.67717 -9.666633,21.23981 14.525017,10.7991 34.051074,13.47761 50.320744,6.14614 -3.47657,-13.03197 -3.15047,-26.60376 -2.76171,-40.16177 0.38877,-13.55687 0.36115,-27.55135 -4.41874,-40.09171 -6.54845,-2.2432 -13.50796,-2.63143 -20.37677,-2.71643 z"
     fill="#5d0f36"
     id="path46"
     style="stroke-width:1.10455" />
  <path
     opacity="0.1"
     d="m 106.05182,118.14333 c -2.44698,7.85524 -3.85322,16.08951 -4.16264,24.37202 1.80966,-7.85178 4.29,-16.07917 6.89461,-23.66449 -0.36645,4.54154 -0.84869,9.32773 -1.9247,13.73489 1.55718,-4.70119 3.11436,-9.40239 4.67155,-14.10359 1.5285,0.82354 3.27369,2.06288 4.96046,2.35462 -0.43763,4.02582 -1.65597,8.00801 -2.84669,11.85235 1.54974,-3.95231 2.82438,-8.03097 3.80798,-12.18889 -0.34947,3.8765 -0.7308,7.72889 -1.51895,11.52959 2.02668,-3.73178 3.51163,-7.8047 4.38688,-12.02693 0.888,0.054 1.86203,0.79483 2.75003,0.84995 -0.004,5.09058 -0.13596,10.33162 -0.14021,15.42219 0.69043,-5.52129 1.2109,-11.06786 1.56037,-16.62706 -5.94937,-2.17773 -12.27582,-2.8175 -18.43869,-1.50465 z"
     fill="#000000"
     id="path47"
     style="stroke-width:1.10455" />
  <path
     d="m 110.20077,80.687874 c -4.27312,0.562696 -7.47766,4.855455 -8.47007,9.385284 -0.99241,4.529713 -0.2356,9.270194 0.5772,13.841712 0.81268,4.57141 1.68124,9.26641 0.90233,13.84482 6.95761,3.62382 14.9995,4.94356 22.54323,3.15405 1.81211,-5.63731 3.31299,-11.76437 3.85471,-17.70399 0.54172,-5.939497 -0.31653,-12.230581 -3.48082,-17.121184 -3.16322,-4.890602 -10.44777,-6.12224 -15.92658,-5.400692 z"
     fill="#ff2e6d"
     id="path48"
     style="stroke-width:1.10455" />
  <path
     opacity="0.1"
     d="m 127.38818,90.091305 c -0.58846,-0.698805 -1.40316,-1.225321 -2.27735,-1.240827 -0.99953,-0.0178 -1.93108,0.638618 -2.53759,1.498571 -0.60545,0.859838 -0.93686,1.90552 -1.22153,2.942242 -1.64747,6.004164 -1.68464,11.981109 -0.35265,18.075899 0.69787,-0.0257 1.39361,-0.10659 2.08191,-0.22972 0.666,2.99875 1.68464,5.90321 3.0347,8.61389 1.6464,-5.31271 2.98796,-11.00618 3.4925,-16.54149 0.29954,-3.287857 0.16783,-6.682643 -0.54384,-9.888946 -0.10941,-0.26992 -0.21669,-0.541217 -0.32928,-0.809645 -0.36434,-0.859723 -0.75841,-1.721054 -1.34687,-2.419974 z"
     fill="#000000"
     id="path49"
     style="stroke-width:1.10455" />
  <path
     d="m 147.53594,95.021993 c 0.2921,-2.013946 -1.74625,-3.11453 -3.61253,-3.400415 -2.37189,6.995058 -5.63815,14.108882 -8.00897,21.103942 -2.83819,-7.01344 -5.67532,-14.026875 -8.51245,-21.040425 -0.2698,-0.668367 -0.55234,-1.354997 -1.03777,-1.861757 -0.48436,-0.506761 -1.83972,-0.134616 -2.46005,0.151844 -2.91467,11.488478 -0.007,24.500568 7.43645,33.282838 1.28101,1.51269 3.30449,3.34356 5.1474,2.86 1.84292,-0.48356 3.26414,-2.14557 4.06928,-4.00285 0.80621,-1.85728 6.22342,-21.8781 6.97864,-27.093177 z"
     fill="#f9c489"
     id="path50"
     style="stroke-width:1.10455" />
  <path
     opacity="0.1"
     d="m 132.44105,104.14161 c -1.67296,0.15242 -3.09524,0.40534 -4.82025,0.77208 -1.16629,0.2481 -2.38569,0.58004 -3.23758,1.47733 -0.28785,0.30322 -0.50985,0.65699 -0.6883,1.03832 0.47268,2.16683 1.12593,4.28725 1.95232,6.32428 3.18978,-1.93228 5.76242,-5.04531 7.16346,-8.6975 -0.12322,-0.30484 -0.24643,-0.60968 -0.36965,-0.91451 z"
     fill="#000000"
     id="path51"
     style="stroke-width:1.10455" />
  <path
     d="m 112.50042,97.973079 c 2.67886,0.480341 4.96684,-2.156028 6.14163,-4.802965 2.14351,-4.83122 2.42287,-10.592343 0.75734,-15.639154 -0.91773,-2.782356 -2.41437,-5.752507 -1.4244,-8.505575 0.55978,-1.55669 1.81742,-2.670023 2.99964,-3.744764 1.18329,-1.074739 2.39632,-2.277434 2.8042,-3.888223 0.40895,-1.610905 -0.39195,-3.684004 -1.92364,-3.898676 -1.45839,-1.794794 -3.63059,-2.616844 -5.83889,-2.548502 -2.20831,0.06846 -4.3412,0.830664 -6.43692,1.585635 -2.73622,0.985265 -5.82201,2.333026 -6.73465,5.290773 -0.94291,3.056181 0.92879,6.450854 0.1828,9.569978 -0.69308,2.898365 -3.479436,4.837996 -4.020944,7.773805 -0.597167,3.237889 1.747524,6.349663 1.623464,9.648541 -0.094,2.497506 -1.601795,4.840869 -1.283136,7.316551 0.340859,2.64797 2.759056,4.523397 5.202536,4.931147 2.44348,0.40775 5.57059,-2.366795 7.95097,-3.088571 z"
     fill="#18191b"
     id="path52"
     style="stroke-width:1.10455" />
  <path
     d="m 120.96295,67.490289 c -0.0457,1.36786 0.11578,2.743418 0.47586,4.055573 -0.0595,0.121521 -0.13383,0.251082 -0.19225,0.372604 -0.47374,0.04101 -0.96342,0.01071 -1.43716,0.05158 -0.0329,-1.556117 0.30167,-3.22514 1.15355,-4.479749 z"
     fill="#f9c489"
     id="path53"
     style="stroke-width:1.10455" />
  <path
     d="m 122.56049,111.32423 c 4.28491,-0.59394 8.31913,-3.0818 10.97356,-6.76741 -1.02289,-4.51271 -2.75534,-8.759525 -4.89885,-12.786728 -0.43656,-0.819293 -0.90287,-1.637093 -1.54975,-2.273529 -0.64581,-0.636322 -1.50301,-1.078532 -2.37401,-1.00571 -0.9974,0.08327 -1.86734,0.830779 -2.39738,1.747931 -0.52897,0.917268 -0.76903,1.992009 -0.96235,3.052736 -1.12168,6.144179 -0.64369,12.09884 1.20878,18.03271 z"
     fill="#ff2e6d"
     id="path54"
     style="stroke-width:1.10455" />
  <path
     d="m 116.404,74.276646 c -0.36858,-2.179804 0.84232,-4.14011 1.59754,-5.114463 0.58634,-0.757613 1.26083,-1.435399 1.91408,-2.091017 0.53216,-0.533637 1.08132,-1.085537 1.57205,-1.670746 1.59224,-1.898283 2.23487,-4.045581 1.71864,-5.744009 l 0.52472,-0.185727 c 0.57784,1.9046 -0.10728,4.271165 -1.83441,6.33048 -0.50667,0.604162 -1.06538,1.164791 -1.60604,1.707157 -0.63945,0.642868 -1.30226,1.307905 -1.86628,2.036688 -0.69256,0.894411 -1.80574,2.684382 -1.47752,4.624473 z"
     fill="#18191b"
     id="path55"
     style="stroke-width:1.10455" />
  <path
     d="m 101.39154,93.756241 -0.543,-0.104295 c 0.41479,-2.521052 -0.49137,-5.062663 -1.367364,-7.52077 l -0.16156,-0.454725 c -0.982958,-2.773168 -1.75868,-5.708976 -0.785814,-8.386925 0.345958,-0.95276 0.897876,-1.79801 1.431523,-2.615581 0.665045,-1.019262 1.293225,-1.981556 1.546345,-3.12257 0.24919,-1.121028 0.10325,-2.266408 -0.0512,-3.478979 -0.0967,-0.758761 -0.19629,-1.543366 -0.19119,-2.324067 0.0216,-3.181607 1.94106,-6.237904 4.66783,-7.432787 l 0.20734,0.552934 c -2.5258,1.106556 -4.3036,3.937382 -4.32357,6.884218 -0.005,0.737628 0.0922,1.500754 0.1862,2.238496 0.15455,1.214065 0.31431,2.469135 0.0412,3.699509 -0.27797,1.252199 -0.96649,2.306839 -1.63238,3.327251 -0.514741,0.788395 -1.047008,1.604012 -1.368642,2.489464 -0.904036,2.489005 -0.155612,5.294563 0.787301,7.955857 l 0.161454,0.453236 c 0.903077,2.534375 1.837287,5.155009 1.395517,7.839734 z"
     fill="#18191b"
     id="path56"
     style="stroke-width:1.10455" />
  <path
     d="m 113.51376,98.658674 c -0.21669,0 -0.4355,-0.0081 -0.6575,-0.02527 -1.65915,-0.12646 -3.25139,-0.675489 -4.79051,-1.206484 l 0.16676,-0.568555 c 1.50939,0.520428 3.06869,1.058545 4.66305,1.180296 1.742,0.130711 3.31724,-0.29335 4.43361,-1.199821 1.03671,-0.84261 1.82061,-2.218971 2.20725,-3.87536 0.36433,-1.557495 0.36646,-3.193898 0.31653,-4.730029 -0.13065,-3.950362 -0.64688,-7.897968 -1.53487,-11.732896 l 0.53534,-0.145069 c 0.8965,3.875705 1.41804,7.864775 1.55081,11.856371 0.0521,1.580467 0.0478,3.267523 -0.33247,4.89784 -0.41744,1.788016 -1.27357,3.281764 -2.41118,4.206268 -1.07813,0.875574 -2.53228,1.342707 -4.14682,1.342707 z"
     fill="#18191b"
     id="path57"
     style="stroke-width:1.10455" />
  <path
     d="m 142.88989,96.465318 0.7276,-2.369437 c 0.30485,-0.995487 0.24962,-2.076774 -0.14552,-3.034702 -0.38558,-0.935186 -0.81683,-2.179919 -0.89755,-3.23272 -0.15296,-1.980638 -1.33519,-3.344479 -1.33519,-3.344479 0,0 0.71486,-0.810563 1.46477,0.285885 0.53216,0.778977 0.83489,1.673158 0.96554,2.12559 0.0531,0.185957 0.18695,0.331714 0.35902,0.388454 0.24643,0.08121 0.51198,-0.03618 0.6352,-0.280831 l 0.11047,-0.22122 c 0.42594,-0.847893 0.71379,-1.768606 0.85082,-2.722054 l 0.68086,-4.740941 c 0.0329,-0.227421 0.23263,-0.381103 0.44188,-0.340214 0.18376,0.03595 0.31653,0.212146 0.31122,0.414643 l -0.12746,4.897264 c -0.003,0.137373 0.17526,0.171715 0.21562,0.04158 l 1.54125,-4.951133 c 0.0616,-0.197214 0.2475,-0.315979 0.43763,-0.278994 l 0.0361,0.007 c 0.20926,0.04101 0.34947,0.25694 0.31335,0.483902 l -0.77965,4.91748 c -0.0223,0.140703 0.16145,0.197674 0.21138,0.06558 l 1.51894,-3.996076 c 0.0882,-0.232017 0.34309,-0.329072 0.54597,-0.207666 l 0.001,5.75e-4 c 0.1572,0.09361 0.23368,0.290939 0.18695,0.477584 l -1.35855,5.37979 c -0.0319,0.130135 0.12852,0.210307 0.19863,0.09889 l 1.95338,-3.092936 c 0.12427,-0.197329 0.37602,-0.242469 0.5534,-0.09901 0.14659,0.119224 0.19651,0.333781 0.11791,0.513766 l -2.95397,6.811742 -1.6496,3.06962 -1.45414,4.461142 z"
     fill="#f9c489"
     id="path58"
     style="stroke-width:1.10455" />
  <g
     opacity="0.2"
     id="g63"
     transform="matrix(1.0621973,0,0,1.1485949,-0.03194901,5.5444656e-7)">
    <path
       d="m 141.568,76.2539 c -0.081,-0.1594 -0.244,-0.2741 -0.422,-0.2974 z"
       fill="#ffffff"
       id="path59" />
    <path
       d="m 141.568,76.2542 c 0.013,-0.1088 -0.05,-0.2036 -0.131,-0.2623 -0.082,-0.0566 -0.192,-0.0842 -0.291,-0.0351 0.08,0.0723 0.14,0.1138 0.203,0.1603 0.066,0.0441 0.125,0.0866 0.219,0.1371 z"
       fill="#000000"
       id="path60" />
    <path
       d="m 140.612,74.9222 c 0.015,-0.1136 -0.052,-0.2156 -0.138,-0.278 -0.087,-0.0603 -0.206,-0.0886 -0.308,-0.0359 0.088,0.0695 0.152,0.1121 0.22,0.1612 0.069,0.0469 0.131,0.0936 0.226,0.1527 z"
       fill="#000000"
       id="path61" />
    <path
       d="m 139.526,74.1284 c -0.026,-0.1258 -0.131,-0.2161 -0.245,-0.2588 -0.116,-0.0404 -0.254,-0.0378 -0.354,0.0431 0.119,0.0408 0.209,0.0662 0.302,0.101 0.094,0.0324 0.18,0.0703 0.297,0.1147 z"
       fill="#000000"
       id="path62" />
    <path
       d="m 138.027,73.7594 c -0.027,-0.1022 -0.119,-0.1623 -0.212,-0.1828 -0.094,-0.0178 -0.202,0.0018 -0.266,0.0857 0.097,0.0346 0.163,0.0485 0.236,0.0644 0.072,0.0132 0.139,0.0263 0.242,0.0327 z"
       fill="#000000"
       id="path63" />
  </g>
  <g
     opacity="0.3"
     id="g67"
     transform="matrix(1.0621973,0,0,1.1485949,-0.03194901,5.5444656e-7)">
    <path
       d="m 143.213,72.5543 c 0.033,-0.0484 0.083,-0.0801 0.141,-0.0898 0.057,-0.0094 0.115,0.0047 0.162,0.0396 0.08,0.061 0.107,0.1692 0.064,0.2596 l -0.121,0.2592 c -0.126,-0.0926 -0.261,-0.1725 -0.403,-0.2376 z"
       fill="#ffffff"
       id="path64" />
    <path
       d="m 138.325,69.1181 -0.003,0.1302 c -0.137,-0.0358 -0.276,-0.0611 -0.415,-0.0767 l 0.014,-0.0905 c 0.009,-0.0546 0.038,-0.1023 0.083,-0.1343 0.045,-0.0321 0.1,-0.0444 0.154,-0.0345 0.1,0.0179 0.17,0.1047 0.167,0.2058 z"
       fill="#ffffff"
       id="path65" />
    <path
       d="m 141.79,70.2133 c 0.024,-0.0565 0.068,-0.099 0.126,-0.1193 0.058,-0.0203 0.119,-0.0152 0.173,0.0145 0.087,0.0479 0.129,0.1472 0.103,0.2419 l -0.028,0.1007 c -0.132,-0.0611 -0.273,-0.1037 -0.419,-0.1279 z"
       fill="#ffffff"
       id="path66" />
    <path
       d="m 140.129,69.2518 0.031,-0.0914 c 0.033,-0.099 0.135,-0.1595 0.238,-0.1409 l 0.035,0.0061 c 0.113,0.0203 0.19,0.1299 0.171,0.2445 l -0.013,0.0763 c -0.148,-0.0505 -0.307,-0.0801 -0.462,-0.0946 z"
       fill="#ffffff"
       id="path67" />
  </g>
  <path
     opacity="0.2"
     d="m 141.47292,84.30365 c 0.26555,0.219841 0.52685,0.463343 0.64581,0.798158 -0.0436,0.14415 -0.12215,0.283474 -0.222,0.402238 -0.3314,-0.643787 -0.6575,-1.020296 -0.6575,-1.020296 0,0 0.0882,-0.0982 0.23369,-0.1801 z"
     fill="#ffffff"
     id="path68"
     style="stroke-width:1.10455" />
  <path
     opacity="0.2"
     d="m 145.69728,96.711116 c -2.21787,4.445404 -3.85366,9.229304 -4.84469,14.165164 2.61938,-4.03123 4.26048,-9.27858 4.84469,-14.165164 z"
     fill="#ffffff"
     id="path69"
     style="stroke-width:1.10455" />
  <g
     style="mix-blend-mode:multiply"
     id="g70"
     transform="matrix(1.0621973,0,0,1.1485949,-0.03194901,5.5444656e-7)">
    <path
       d="M 80.6123,202 H 91.18 c -0.0904,-0.618 -0.1356,-1.235 -0.1665,-1.852 h -9.0161 c -0.4823,0.604 -0.9458,1.222 -1.3851,1.852 z"
       fill="#ff2e6d"
       id="path70" />
  </g>
  <g
     style="mix-blend-mode:multiply"
     id="g71"
     transform="matrix(1.0621973,0,0,1.1485949,-0.03194901,5.5444656e-7)">
    <path
       d="m 107.511,201.9 h 15.337 c -0.052,-0.669 -0.326,-1.246 -0.732,-1.752 h -14.165 z"
       fill="#ff2e6d"
       id="path71" />
  </g>
  <path
     d="M 127.97239,32.045453 H 96.481106 c -2.174955,0 -3.937991,1.57369 -3.937991,3.51493 v 5.601353 c 0,1.94124 1.763036,3.514931 3.937991,3.514931 h 31.491284 c 2.17538,0 3.93863,-1.573691 3.93863,-3.514931 v -5.601353 c 0,-1.94124 -1.76325,-3.51493 -3.93863,-3.51493 z"
     fill="#5d0f36"
     id="path72"
     style="stroke-width:1.10455" />
  <path
     d="m 99.01211,41.713292 c -0.44538,0 -0.830532,-0.07087 -1.155459,-0.21249 -0.324926,-0.141737 -0.576348,-0.342856 -0.754585,-0.603472 -0.17813,-0.266359 -0.267248,-0.577973 -0.267248,-0.934956 0,-0.351356 0.08391,-0.648726 0.251528,-0.892459 0.172926,-0.249245 0.421798,-0.436236 0.746725,-0.560974 0.324926,-0.13025 0.717939,-0.19549 1.179039,-0.19549 0.461099,0 0.854112,0.06524 1.17893,0.19549 0.33013,0.124738 0.58166,0.311729 0.75459,0.560974 0.17292,0.249361 0.25939,0.546846 0.25939,0.892459 0,0.356983 -0.089,0.668597 -0.26725,0.934956 -0.17813,0.260616 -0.43232,0.461735 -0.76245,0.603472 -0.330023,0.141621 -0.717831,0.21249 -1.16321,0.21249 z m 0,-0.688468 c 0.440174,0 0.78337,-0.09636 1.02969,-0.288987 0.25143,-0.198361 0.37719,-0.464606 0.37719,-0.798963 0,-0.328612 -0.12576,-0.586471 -0.37719,-0.773462 -0.24632,-0.192621 -0.589516,-0.288988 -1.02969,-0.288988 -0.43497,0 -0.775511,0.09637 -1.021834,0.288988 -0.246324,0.186991 -0.369432,0.44485 -0.369432,0.773462 0,0.334357 0.123108,0.600602 0.369432,0.798963 0.246323,0.19262 0.586864,0.288987 1.021834,0.288987 z m 0,-2.252394 c -0.41925,0 -0.775511,-0.0595 -1.068996,-0.178492 -0.293485,-0.124623 -0.518777,-0.300242 -0.675982,-0.526861 -0.157205,-0.232361 -0.235808,-0.50722 -0.235808,-0.824461 0,-0.334356 0.08126,-0.620471 0.243668,-0.85846 0.167721,-0.243617 0.400873,-0.430609 0.699563,-0.560974 0.29869,-0.130365 0.644542,-0.195491 1.037555,-0.195491 0.398217,0 0.746724,0.06512 1.04541,0.195491 0.29859,0.130365 0.53185,0.317357 0.69946,0.560974 0.16772,0.237989 0.25153,0.524104 0.25153,0.85846 0,0.317241 -0.0786,0.5921 -0.23581,0.824461 -0.1572,0.226619 -0.38515,0.402238 -0.68373,0.526861 -0.298695,0.118994 -0.657717,0.178492 -1.07686,0.178492 z m 0,-0.543975 c 0.382497,0 0.681187,-0.085 0.896069,-0.254873 0.219981,-0.169992 0.330021,-0.402353 0.330021,-0.696968 0,-0.300357 -0.11259,-0.535474 -0.337881,-0.705466 -0.225398,-0.169993 -0.521433,-0.254988 -0.888209,-0.254988 -0.366777,0 -0.660262,0.08499 -0.88035,0.254988 -0.214882,0.169992 -0.32227,0.405109 -0.32227,0.705466 0,0.294615 0.104839,0.526976 0.31441,0.696968 0.214883,0.169877 0.510917,0.254873 0.88821,0.254873 z m 3.43132,0.03399 c -0.14669,0 -0.27245,-0.05375 -0.37729,-0.161377 -0.10484,-0.11337 -0.15721,-0.254988 -0.15721,-0.42498 0,-0.169992 0.0524,-0.308857 0.15721,-0.416481 0.10484,-0.107738 0.2306,-0.161492 0.37729,-0.161492 0.14149,0 0.26205,0.05375 0.36157,0.161492 0.10484,0.107624 0.15721,0.246489 0.15721,0.416481 0,0.169992 -0.0524,0.311614 -0.15721,0.42498 -0.0995,0.107623 -0.22008,0.161377 -0.36157,0.161377 z m 0,3.43384 c -0.14669,0 -0.27245,-0.05387 -0.37729,-0.161493 -0.10484,-0.113369 -0.15721,-0.254987 -0.15721,-0.42498 0,-0.169992 0.0524,-0.308857 0.15721,-0.41648 0.10484,-0.107624 0.2306,-0.161493 0.37729,-0.161493 0.14149,0 0.26205,0.05387 0.36157,0.161493 0.10484,0.107623 0.15721,0.246488 0.15721,0.41648 0,0.169993 -0.0524,0.311614 -0.15721,0.42498 -0.0995,0.107624 -0.22008,0.161493 -0.36157,0.161493 z m 2.94409,0.017 c -0.3878,0 -0.7651,-0.06524 -1.13187,-0.195491 -0.36158,-0.130365 -0.65761,-0.305985 -0.88821,-0.526975 l 0.36157,-0.671469 c 0.18344,0.186991 0.4218,0.339984 0.71528,0.458978 0.29349,0.118995 0.6079,0.178492 0.94323,0.178492 0.40874,0 0.7257,-0.09349 0.9511,-0.280487 0.23049,-0.192619 0.34627,-0.450478 0.34627,-0.773464 0,-0.311614 -0.11047,-0.560973 -0.33034,-0.747964 -0.2151,-0.19262 -0.55829,-0.288987 -1.02991,-0.288987 h -0.44017 v -0.594972 l 1.63472,-2.175784 0.11047,0.339985 h -3.01069 v -0.739458 h 3.63101 v 0.577972 l -1.62665,2.167284 -0.40873,-0.263488 h 0.25939 c 0.66546,0 1.1631,0.161493 1.49345,0.484477 0.33565,0.322986 0.50348,0.733837 0.50348,1.232443 0,0.334355 -0.0765,0.640342 -0.22837,0.917957 -0.1519,0.277615 -0.3824,0.498604 -0.69149,0.662969 -0.30379,0.158621 -0.69192,0.237989 -1.16354,0.237989 z m 5.06392,0 c -0.43019,0 -0.8147,-0.118995 -1.15567,-0.356984 -0.33459,-0.237988 -0.60226,-0.583601 -0.80196,-1.036951 -0.19332,-0.453351 -0.28998,-1.002953 -0.28998,-1.648923 0,-0.645854 0.0967,-1.195572 0.28998,-1.648808 0.1997,-0.45335 0.46737,-0.798962 0.80196,-1.036951 0.34097,-0.237989 0.72548,-0.356984 1.15567,-0.356984 0.42488,0 0.80727,0.118995 1.14718,0.356984 0.34096,0.237989 0.60864,0.583601 0.80196,1.036951 0.19438,0.453236 0.29104,1.002954 0.29104,1.648808 0,0.64597 -0.0967,1.195572 -0.29104,1.648923 -0.19332,0.45335 -0.461,0.798963 -0.80196,1.036951 -0.33991,0.237989 -0.7223,0.356984 -1.14718,0.356984 z m 0,-0.756465 c 0.28786,0 0.5396,-0.085 0.75416,-0.254988 0.22094,-0.169992 0.39089,-0.42498 0.51092,-0.764964 0.1264,-0.339984 0.18907,-0.762093 0.18907,-1.266441 0,-0.504233 -0.0627,-0.926342 -0.18907,-1.266325 -0.12003,-0.339985 -0.28998,-0.594973 -0.51092,-0.764965 -0.21456,-0.169992 -0.4663,-0.254988 -0.75416,-0.254988 -0.28785,0 -0.54278,0.085 -0.76265,0.254988 -0.21988,0.169992 -0.39302,0.42498 -0.51836,0.764965 -0.12109,0.339983 -0.18057,0.762092 -0.18057,1.266325 0,0.504348 0.0595,0.926457 0.18057,1.266441 0.12534,0.339984 0.29848,0.594972 0.51836,0.764964 0.21987,0.169992 0.4748,0.254988 0.76265,0.254988 z m 4.72041,0.688468 2.49191,-5.949606 h 0.77753 l 2.49935,5.949606 h -0.82533 l -2.22424,-5.473629 h 0.31441 l -2.22424,5.473629 z m 1.06113,-1.487431 0.21244,-0.679968 h 3.09631 l 0.22837,0.679968 z m 5.52874,1.487431 v -5.949599 h 0.64475 l 2.46749,4.496174 h -0.34522 l 2.43669,-4.496174 h 0.64475 l 0.007,5.949606 h -0.75416 l -0.008,-4.666166 h 0.18057 l -2.16901,3.9437 h -0.36114 l -2.18601,-3.9437 h 0.19651 v 4.666166 z"
     fill="#ffffff"
     id="path73"
     style="stroke-width:1.10455" />
  <path
     d="m 277.37044,30.380565 h -31.36562 c -2.03942,0 -3.6922,1.57369 -3.6922,3.514815 v 5.601584 c 0,1.94124 1.65278,3.514929 3.6922,3.514929 h 31.36562 c 2.03942,0 3.6922,-1.573689 3.6922,-3.514929 V 33.89538 c 0,-1.941125 -1.65278,-3.514815 -3.6922,-3.514815 z"
     fill="#5d0f36"
     id="path74"
     style="stroke-width:1.10455" />
  <path
     d="m 248.41282,39.834995 c -0.3877,0 -0.76585,-0.06513 -1.1323,-0.195491 -0.36115,-0.130251 -0.6575,-0.305986 -0.888,-0.526976 l 0.36115,-0.671468 c 0.18376,0.186991 0.42169,0.339984 0.71592,0.458978 0.29316,0.118995 0.60439,0.178492 0.93473,0.178492 0.41957,0 0.74142,-0.09625 0.9666,-0.288986 0.22625,-0.19262 0.33884,-0.45048 0.33884,-0.773349 0,-0.220991 -0.0499,-0.413725 -0.14977,-0.577973 -0.0998,-0.164365 -0.27192,-0.288987 -0.51835,-0.373983 -0.24112,-0.09074 -0.57465,-0.135994 -0.99847,-0.135994 h -1.2502 l 0.29104,-3.110739 h 3.1048 v 0.739351 h -2.81376 l 0.40895,-0.416481 -0.22837,2.456385 -0.40895,-0.407981 h 1.06113 c 0.55022,0 0.99316,0.0765 1.32881,0.22949 0.33566,0.152993 0.5789,0.365483 0.7308,0.63747 0.15189,0.266244 0.22837,0.575101 0.22837,0.926456 0,0.339869 -0.0765,0.651598 -0.22837,0.934841 -0.1519,0.277731 -0.3824,0.501478 -0.69149,0.671469 -0.30379,0.164364 -0.6915,0.246489 -1.16311,0.246489 z m 3.25563,-3.450724 c -0.14658,0 -0.27298,-0.05387 -0.37708,-0.161492 -0.10515,-0.11337 -0.1572,-0.254988 -0.1572,-0.42498 0,-0.169993 0.052,-0.308857 0.1572,-0.416481 0.1041,-0.107623 0.2305,-0.161493 0.37708,-0.161493 0.14128,0 0.2613,0.05387 0.36115,0.161493 0.10516,0.107624 0.15721,0.246488 0.15721,0.416481 0,0.169992 -0.0521,0.311614 -0.15721,0.42498 -0.0998,0.107623 -0.21987,0.161492 -0.36115,0.161492 z m 0,3.433725 c -0.14658,0 -0.27298,-0.05387 -0.37708,-0.161493 -0.10515,-0.113254 -0.1572,-0.254988 -0.1572,-0.42498 0,-0.169992 0.052,-0.308743 0.1572,-0.41648 0.1041,-0.107624 0.2305,-0.161493 0.37708,-0.161493 0.14128,0 0.2613,0.05387 0.36115,0.161493 0.10516,0.107738 0.15721,0.246488 0.15721,0.41648 0,0.169992 -0.0521,0.311728 -0.15721,0.42498 -0.0998,0.107624 -0.21987,0.161493 -0.36115,0.161493 z m 3.5095,0.017 c -0.42912,0 -0.8147,-0.118995 -1.1546,-0.356984 -0.33566,-0.237989 -0.60333,-0.583601 -0.80196,-1.036951 -0.19439,-0.453236 -0.29105,-1.002838 -0.29105,-1.648808 0,-0.645971 0.0967,-1.195573 0.29105,-1.648923 0.19863,-0.453235 0.4663,-0.798963 0.80196,-1.036951 0.3399,-0.237875 0.72548,-0.356869 1.1546,-0.356869 0.42488,0 0.80727,0.118994 1.14824,0.356869 0.3399,0.237988 0.60758,0.583716 0.8009,1.036951 0.19438,0.45335 0.29104,1.002952 0.29104,1.648923 0,0.64597 -0.0967,1.195572 -0.29104,1.648808 -0.19332,0.45335 -0.461,0.798962 -0.8009,1.036951 -0.34097,0.237989 -0.72336,0.356984 -1.14824,0.356984 z m 0,-0.756465 c 0.28892,0 0.5396,-0.085 0.75523,-0.254988 0.21987,-0.169992 0.38982,-0.42498 0.51091,-0.764849 0.12534,-0.339985 0.18801,-0.762208 0.18801,-1.266441 0,-0.504348 -0.0627,-0.926457 -0.18801,-1.266442 -0.12109,-0.339983 -0.29104,-0.594971 -0.51091,-0.764963 -0.21563,-0.169992 -0.46631,-0.254989 -0.75523,-0.254989 -0.28785,0 -0.54172,0.085 -0.76159,0.254989 -0.22094,0.169992 -0.39301,0.42498 -0.51942,0.764963 -0.12002,0.339985 -0.18057,0.762094 -0.18057,1.266442 0,0.504233 0.0605,0.926456 0.18057,1.266441 0.12641,0.339869 0.29848,0.594857 0.51942,0.764849 0.21987,0.169992 0.47374,0.254988 0.76159,0.254988 z m 5.24301,0.756465 c -0.43019,0 -0.81471,-0.118995 -1.15567,-0.356984 -0.33566,-0.237989 -0.60227,-0.583601 -0.80196,-1.036951 -0.19332,-0.453236 -0.28998,-1.002838 -0.28998,-1.648808 0,-0.645971 0.0967,-1.195573 0.28998,-1.648923 0.19969,-0.453235 0.4663,-0.798963 0.80196,-1.036951 0.34096,-0.237875 0.72548,-0.356869 1.15567,-0.356869 0.42382,0 0.80727,0.118994 1.14717,0.356869 0.34097,0.237988 0.60864,0.583716 0.80196,1.036951 0.19438,0.45335 0.29104,1.002952 0.29104,1.648923 0,0.64597 -0.0967,1.195572 -0.29104,1.648808 -0.19332,0.45335 -0.46099,0.798962 -0.80196,1.036951 -0.3399,0.237989 -0.72335,0.356984 -1.14717,0.356984 z m 0,-0.756465 c 0.28786,0 0.5396,-0.085 0.75416,-0.254988 0.21987,-0.169992 0.39089,-0.42498 0.51092,-0.764849 0.1264,-0.339985 0.18907,-0.762208 0.18907,-1.266441 0,-0.504348 -0.0627,-0.926457 -0.18907,-1.266442 -0.12003,-0.339983 -0.29105,-0.594971 -0.51092,-0.764963 -0.21456,-0.169992 -0.4663,-0.254989 -0.75416,-0.254989 -0.28786,0 -0.54278,0.085 -0.76266,0.254989 -0.21987,0.169992 -0.39301,0.42498 -0.51835,0.764963 -0.12109,0.339985 -0.18057,0.762094 -0.18057,1.266442 0,0.504233 0.0595,0.926456 0.18057,1.266441 0.12534,0.339869 0.29848,0.594857 0.51835,0.764849 0.21988,0.169992 0.4748,0.254988 0.76266,0.254988 z m 5.55317,0.688467 v -5.949491 h 2.14564 c 0.48223,0 0.8933,0.08213 1.23427,0.246373 0.34096,0.164364 0.60227,0.402353 0.78603,0.713967 0.18376,0.311728 0.2751,0.68284 0.2751,1.113447 0,0.430609 -0.0913,0.801835 -0.2751,1.113449 -0.18376,0.305985 -0.44507,0.543974 -0.78603,0.713966 -0.34097,0.16425 -0.75204,0.246488 -1.23427,0.246488 h -1.71333 l 0.35371,-0.399481 v 2.201282 z m 0.78602,-2.116285 -0.35371,-0.42498 h 1.68996 c 0.50348,0 0.88268,-0.116239 1.13974,-0.348484 0.26236,-0.232362 0.39301,-0.560975 0.39301,-0.985955 0,-0.42498 -0.13065,-0.753593 -0.39301,-0.985954 -0.25706,-0.232246 -0.63626,-0.348483 -1.13974,-0.348483 h -1.68996 l 0.35371,-0.42498 z m 4.80963,2.116285 v -5.949491 h 0.64476 l 2.46854,4.496059 h -0.34627 l 2.43668,-4.496059 h 0.64475 l 0.007,5.949491 h -0.75416 l -0.008,-4.666167 h 0.18163 l -2.17006,3.943701 h -0.36115 l -2.18494,-3.943701 h 0.19651 v 4.666167 z"
     fill="#ffffff"
     id="path75"
     style="stroke-width:1.10455" />
  <path
     d="m 199.85978,15.341093 h -33.93083 c -1.63048,0 -2.95291,1.57369 -2.95291,3.514931 v 5.601468 c 0,1.94124 1.32243,3.51493 2.95291,3.51493 h 33.93083 c 1.63047,0 2.95291,-1.57369 2.95291,-3.51493 v -5.601468 c 0,-1.941241 -1.32244,-3.514931 -2.95291,-3.514931 z"
     fill="#5d0f36"
     id="path76"
     style="stroke-width:1.10455" />
  <path
     d="m 169.69338,24.556845 v -5.609622 l 0.33777,0.39948 h -1.57948 v -0.739465 h 2.0203 v 5.949607 z m 2.50041,-3.382728 c -0.14659,0 -0.27299,-0.05387 -0.37708,-0.161491 -0.10516,-0.11337 -0.15721,-0.254989 -0.15721,-0.42498 0,-0.169992 0.052,-0.308858 0.15721,-0.416481 0.10409,-0.107623 0.23049,-0.161492 0.37708,-0.161492 0.14127,0 0.26236,0.05387 0.36114,0.161492 0.10516,0.107624 0.15721,0.246489 0.15721,0.416481 0,0.169991 -0.0521,0.311613 -0.15721,0.42498 -0.0988,0.107623 -0.21987,0.161491 -0.36114,0.161491 z m 0,3.433725 c -0.14659,0 -0.27299,-0.05387 -0.37708,-0.161492 -0.10516,-0.113369 -0.15721,-0.254989 -0.15721,-0.424981 0,-0.169991 0.052,-0.308857 0.15721,-0.41648 0.10409,-0.107624 0.23049,-0.161492 0.37708,-0.161492 0.14127,0 0.26236,0.05387 0.36114,0.161492 0.10516,0.107623 0.15721,0.246489 0.15721,0.41648 0,0.169992 -0.0521,0.311614 -0.15721,0.424981 -0.0988,0.107624 -0.21987,0.161492 -0.36114,0.161492 z m 3.5095,0.017 c -0.42913,0 -0.81471,-0.118994 -1.15461,-0.356983 -0.33566,-0.237988 -0.60333,-0.583602 -0.80196,-1.036951 -0.19438,-0.453236 -0.29104,-1.002953 -0.29104,-1.648809 0,-0.64597 0.0967,-1.195687 0.29104,-1.648923 0.19863,-0.453349 0.4663,-0.798963 0.80196,-1.036951 0.3399,-0.237989 0.72548,-0.356983 1.15461,-0.356983 0.42488,0 0.80727,0.118994 1.14823,0.356983 0.33991,0.237988 0.60758,0.583602 0.80196,1.036951 0.19332,0.453236 0.28998,1.002953 0.28998,1.648923 0,0.645856 -0.0967,1.195573 -0.28998,1.648809 -0.19438,0.453349 -0.46205,0.798963 -0.80196,1.036951 -0.34096,0.237989 -0.72335,0.356983 -1.14823,0.356983 z m 0,-0.756464 c 0.28892,0 0.54066,-0.085 0.75522,-0.254988 0.21987,-0.169992 0.38983,-0.424981 0.51092,-0.764964 0.12534,-0.339985 0.18801,-0.762093 0.18801,-1.266327 0,-0.504348 -0.0627,-0.926456 -0.18801,-1.266441 -0.12109,-0.339983 -0.29105,-0.594972 -0.51092,-0.764964 -0.21456,-0.169991 -0.4663,-0.254988 -0.75522,-0.254988 -0.28786,0 -0.54172,0.085 -0.7616,0.254988 -0.22093,0.169992 -0.39301,0.424981 -0.51941,0.764964 -0.12003,0.339985 -0.18058,0.762093 -0.18058,1.266441 0,0.504234 0.0605,0.926342 0.18058,1.266327 0.1264,0.339983 0.29848,0.594972 0.51941,0.764964 0.21988,0.169991 0.47374,0.254988 0.7616,0.254988 z m 5.243,0.756464 c -0.42912,0 -0.8147,-0.118994 -1.15567,-0.356983 -0.33459,-0.237988 -0.60226,-0.583602 -0.80196,-1.036951 -0.19332,-0.453236 -0.28998,-1.002953 -0.28998,-1.648809 0,-0.64597 0.0967,-1.195687 0.28998,-1.648923 0.1997,-0.453349 0.46737,-0.798963 0.80196,-1.036951 0.34097,-0.237989 0.72655,-0.356983 1.15567,-0.356983 0.42488,0 0.80727,0.118994 1.14718,0.356983 0.34096,0.237988 0.60864,0.583602 0.80196,1.036951 0.19438,0.453236 0.29104,1.002953 0.29104,1.648923 0,0.645856 -0.0967,1.195573 -0.29104,1.648809 -0.19332,0.453349 -0.461,0.798963 -0.80196,1.036951 -0.33991,0.237989 -0.7223,0.356983 -1.14718,0.356983 z m 0,-0.756464 c 0.28786,0 0.5396,-0.085 0.75416,-0.254988 0.22094,-0.169992 0.39089,-0.424981 0.51092,-0.764964 0.1264,-0.339985 0.18907,-0.762093 0.18907,-1.266327 0,-0.504348 -0.0627,-0.926456 -0.18907,-1.266441 -0.12003,-0.339983 -0.28998,-0.594972 -0.51092,-0.764964 -0.21456,-0.169991 -0.4663,-0.254988 -0.75416,-0.254988 -0.28785,0 -0.54278,0.085 -0.76265,0.254988 -0.21988,0.169992 -0.39302,0.424981 -0.51836,0.764964 -0.12109,0.339985 -0.18057,0.762093 -0.18057,1.266441 0,0.504234 0.0595,0.926342 0.18057,1.266327 0.12534,0.339983 0.29848,0.594972 0.51836,0.764964 0.21987,0.169991 0.4748,0.254988 0.76265,0.254988 z m 5.55317,0.688467 v -5.949606 h 2.1467 c 0.48118,0 0.89331,0.08224 1.23321,0.246488 0.34097,0.164363 0.60333,0.402353 0.78603,0.713967 0.18376,0.311614 0.27511,0.682725 0.27511,1.113448 0,0.430607 -0.0913,0.801719 -0.27511,1.113333 -0.1827,0.305985 -0.44506,0.543974 -0.78603,0.713966 -0.3399,0.164365 -0.75203,0.246488 -1.23321,0.246488 h -1.71438 l 0.35371,-0.399481 v 2.201397 z m 0.78603,-2.1164 -0.35371,-0.42498 h 1.68995 c 0.50348,0 0.88375,-0.116123 1.13974,-0.348484 0.26236,-0.232246 0.39301,-0.560859 0.39301,-0.985839 0,-0.42498 -0.13065,-0.753593 -0.39301,-0.985955 -0.25599,-0.232361 -0.63626,-0.348484 -1.13974,-0.348484 h -1.68995 l 0.35371,-0.42498 z m 4.80963,2.1164 v -5.949606 h 0.64475 l 2.46855,4.496174 h -0.34628 l 2.43668,-4.496174 h 0.64476 l 0.007,5.949606 h -0.75416 l -0.008,-4.666167 h 0.18164 l -2.17007,3.943702 h -0.36115 l -2.18494,-3.943702 h 0.19651 v 4.666167 z"
     fill="#ffffff"
     id="path77"
     style="stroke-width:1.10455" />
  <path
     opacity="0.2"
     d="m 126.34935,92.173019 c 1.03033,4.006872 2.26567,7.951951 3.69963,11.811001 0.29423,-4.32848 -1.31287,-8.321341 -3.69963,-11.811001 z"
     fill="#ffffff"
     id="path78"
     style="stroke-width:1.10455" />
  <path
     opacity="0.2"
     d="m 97.634546,91.849229 c -2.365407,2.491418 -4.14172,5.631906 -5.11533,9.043921 2.472902,-2.570325 4.233387,-5.459731 5.11533,-9.043921 z"
     fill="#ffffff"
     id="path79"
     style="stroke-width:1.10455" />
  <path
     opacity="0.2"
     d="m 113.32469,93.267974 c 3.27688,-3.330122 5.00507,-8.360507 4.53346,-13.196666 0.35052,1.696474 0.74247,3.650349 0.7276,5.388403 -0.0149,1.738053 -0.39195,3.515964 -1.33412,4.924486 -0.94217,1.408637 -2.32302,2.988299 -3.92694,2.883777 z"
     fill="#ffffff"
     id="path80"
     style="stroke-width:1.10455" />
  <path
     opacity="0.1"
     d="m 107.30415,112.14869 c 3.78992,3.66987 8.75994,5.88782 13.8415,6.17611 -1.69739,-0.32849 -4.02892,0.23432 -5.74649,0.0792 -1.71864,-0.15506 -3.45958,-0.46173 -4.99233,-1.31629 -1.53169,-0.85455 -2.73622,-3.1174 -3.10268,-4.93907 z"
     fill="#000000"
     id="path81"
     style="stroke-width:1.10455" />
</svg>
